<?xml version="1.0" encoding="UTF-8" standalone="no"?>
<!-- Created with Inkscape (http://www.inkscape.org/) -->

<svg
   version="1.1"
   id="svg1"
   width="80.211807mm"
   height="117.23329mm"
   viewBox="0 0 303.16265 443.08637"
   sodipodi:docname="favicon2.svg"
   inkscape:version="1.4.2 (f4327f4, 2025-05-13)"
   xmlns:inkscape="http://www.inkscape.org/namespaces/inkscape"
   xmlns:sodipodi="http://sodipodi.sourceforge.net/DTD/sodipodi-0.dtd"
   xmlns="http://www.w3.org/2000/svg"
   xmlns:svg="http://www.w3.org/2000/svg">
  <defs
     id="defs1">
    <inkscape:perspective
       sodipodi:type="inkscape:persp3d"
       inkscape:vp_x="0 : 270.40808 : 1"
       inkscape:vp_y="0 : 999.99983 : 0"
       inkscape:vp_z="223.03336 : 270.40808 : 1"
       inkscape:persp3d-origin="111.51664 : 212.84866 : 1"
       id="perspective2" />
    <rect
       x="174.07112"
       y="213.56625"
       width="152.12938"
       height="175.53391"
       id="rect32" />
  </defs>
  <sodipodi:namedview
     id="namedview1"
     pagecolor="#ffffff"
     bordercolor="#000000"
     borderopacity="0.25"
     inkscape:showpageshadow="2"
     inkscape:pageopacity="0.0"
     inkscape:pagecheckerboard="0"
     inkscape:deskcolor="#d1d1d1"
     inkscape:zoom="0.68362863"
     inkscape:cx="287.43676"
     inkscape:cy="199.66981"
     inkscape:window-width="1920"
     inkscape:window-height="1009"
     inkscape:window-x="1912"
     inkscape:window-y="-8"
     inkscape:window-maximized="1"
     inkscape:current-layer="svg1"
     showgrid="false"
     inkscape:document-units="mm" />
  <path
     id="path31"
     style="fill:#000000;fill-opacity:1;stroke-width:1.37753"
     d="m 276.05358,0.0077273 c -1.26427,-0.192846 -11.88454,3.247722 -23.60183,7.647465 -11.71738,4.3997437 -28.02839,11.0189747 -36.2455,14.7086107 -8.21716,3.689625 -23.11193,10.977869 -33.09825,16.195937 -9.98632,5.218022 -23.17362,12.48703 -29.30509,16.151645 -6.1315,3.664593 -16.46398,10.317114 -22.96109,14.783324 -6.49711,4.46622 -18.35672,13.37584 -26.35464,19.80087 -7.997911,6.42505 -20.729731,18.122531 -28.292961,25.992801 -7.563195,7.87025 -17.180145,18.91208 -21.372255,24.53765 -4.19197,5.62559 -10.74987,15.49238 -14.5731,21.92805 -3.82336,6.43568 -9.10676,16.45883 -11.74079,22.27418 -2.63391,5.81534 -7.084448,17.87832 -9.891258,26.80658 -2.80686,8.92828 -6.20161,23.23882 -7.54252,31.80064 -1.7898595,11.43007 -2.2672295,21.43194 -1.8003295,37.63208 0.40743,14.11868 1.6408795,27.17206 3.4263695,36.25348 1.53454,7.80543 3.88855,17.37451 5.23,21.26473 1.34163,3.89014 3.80894,8.39103 5.482338,9.99992 1.99713,1.92017 4.684,2.87893 7.8217,2.79038 3.18447,-0.09 5.90855,-1.26385 8.16003,-3.5158 1.85865,-1.85908 3.33211,-4.76124 3.28022,-6.44935 -0.0542,-1.688 -1.68748,-9.34688 -3.63048,-17.02057 -2.94178,-11.61753 -3.68814,-18.5383 -4.45376,-41.36062 -0.72037,-21.44603 -0.43829,-30.04221 1.29339,-39.51538 1.21723,-6.65875 4.25711,-18.78894 6.75741,-26.95602 2.50025,-8.16706 8.11779,-21.87553 12.48404,-30.46327 4.36627,-8.58775 12.04898,-21.43531 17.07195,-28.54875 5.022975,-7.11346 16.564425,-20.42759 25.648995,-29.58798 9.084601,-9.16037 23.385391,-21.75312 31.779571,-27.983551 8.39416,-6.23041 24.66743,-16.98082 36.16285,-23.88856 11.49542,-6.90775 28.4473,-16.356875 37.67086,-20.998432 9.22352,-4.641567 24.65271,-11.689756 34.28708,-15.662297 9.63436,-3.972553 18.86693,-7.646599 20.51472,-8.166732 2.01168,-0.635029 3.28732,-0.28696 3.88543,1.063966 0.49001,1.106533 3.52756,14.741219 6.74946,30.296965 3.22206,15.55571 6.72299,35.48557 7.78115,44.288271 1.058,8.80272 2.13883,23.22551 2.41019,32.05041 0.26546,8.82507 0.1004,22.78621 -0.36814,31.02579 -0.46842,8.23955 -1.7162,20.9214 -2.77273,28.18183 -1.05667,7.26047 -3.32883,19.25708 -5.05081,26.65958 -1.72196,7.4025 -5.18454,18.94237 -7.693,25.64415 -2.50832,6.70176 -7.53461,17.91289 -11.16901,24.91366 -3.63456,7.00079 -10.09345,17.58855 -14.35474,23.52936 -4.26152,5.94084 -12.29971,15.7042 -17.86206,21.69413 -5.56213,5.9899 -14.91279,14.76376 -20.78163,19.49725 -5.86874,4.7335 -15.05558,11.44669 -20.41251,14.91793 -5.3569,3.47122 -14.76455,9.04932 -20.90577,12.39643 -6.14127,3.34713 -11.91512,6.11635 -12.83237,6.1543 -0.91727,0.0395 -3.4223,-3.28391 -5.56821,-7.38372 -2.11224,-4.03573 -3.68781,-7.47068 -3.54416,-7.7231 l 0.002,-0.002 -7e-5,-0.002 0.002,-0.002 0.002,-0.002 c 0.20162,-0.15314 6.31058,-4.24011 13.57664,-9.0818 7.26609,-4.84176 18.29981,-13.06092 24.51711,-18.26444 6.21741,-5.20351 15.42879,-14.01696 20.47123,-19.58784 5.04246,-5.57086 13.09785,-15.59544 17.89955,-22.27543 4.80157,-6.67996 12.57589,-20.08177 17.27792,-29.78303 4.702,-9.7013 10.88985,-25.26769 13.74851,-34.59217 2.85863,-9.32451 6.4258,-24.48066 7.92818,-33.68039 2.3928,-14.65167 2.59563,-21.03988 1.67345,-51.4921 -0.90587,-29.76708 -1.6287,-37.73117 -5.02938,-55.396191 -2.18443,-11.34711 -4.22291,-20.86959 -4.53108,-21.15898 -0.30819,-0.28938 -4.82467,1.28442 -10.0343,3.49552 -5.2096,2.21107 -18.8715,8.84606 -30.36009,14.74376 -11.48871,5.89776 -26.86299,14.73184 -34.165,19.631861 -7.3022,4.89999 -17.58589,12.43249 -22.8538,16.74066 -5.26804,4.30818 -15.22032,13.41379 -22.11722,20.23282 -6.89691,6.81904 -16.59306,17.63148 -21.54596,24.02766 -4.952931,6.39612 -11.613261,15.91849 -14.801801,21.16079 -3.18866,5.24231 -8.09542,14.50165 -10.90323,20.57774 -2.80784,6.07605 -5.093895,11.46649 -5.078145,11.97855 2.8e-4,0.008 0.002,0.0193 0.008,0.0258 8.6e-4,0.001 0.005,0.006 0.007,0.006 l 0.002,0.002 c 10e-4,9e-4 0.008,0.004 0.008,0.005 0.37362,0.14948 4.676155,-3.43585 9.866185,-8.24268 5.42303,-5.02262 16.04441,-13.29374 23.604311,-18.3824 7.55993,-5.08863 14.18191,-10.02434 14.7133,-10.96707 0.53144,-0.94273 4.97,-6.44631 9.86559,-12.2287 4.89561,-5.78235 15.3561,-16.05571 23.24304,-22.83135 7.88698,-6.77566 20.40512,-16.37959 27.82067,-21.33997 7.41541,-4.96039 20.22816,-12.62842 28.4711,-17.04292 8.24296,-4.414481 15.35162,-7.701881 15.79885,-7.304421 0.44702,0.3975 1.48901,5.102751 2.31441,10.457901 0.82543,5.35509 1.81968,19.18156 2.2087,30.72562 0.38919,11.54408 -0.0474,27.99996 -0.9711,36.56578 -0.92372,8.56582 -2.75174,20.54152 -4.05993,26.6133 -1.30823,6.07178 -4.23905,16.51236 -6.5153,23.20101 -2.27626,6.68864 -6.85157,17.65771 -10.16559,24.37564 -3.31416,6.71795 -9.62832,17.51133 -14.03305,23.98554 -4.40477,6.47422 -12.15916,16.44528 -17.23247,22.15728 -5.0733,5.71205 -13.89662,14.27091 -19.60443,19.02235 -5.70778,4.75142 -14.05541,11.03334 -18.55168,13.95841 -4.49639,2.92509 -8.74402,5.00774 -9.43956,4.62879 -0.69554,-0.37896 -0.98001,-3.21921 -0.63206,-6.31281 0.34809,-3.09359 1.22437,-8.65223 1.94843,-12.35292 0.72408,-3.70065 3.09374,-10.82342 5.26473,-15.82614 2.70543,-6.23469 3.628,-10.16524 2.93081,-12.49564 -0.55931,-1.86992 -2.31566,-4.55056 -3.90016,-5.95922 -1.8645,-1.65754 -4.79278,-2.50731 -8.30336,-2.40825 -3.81911,0.1078 -6.25705,1.06768 -8.23769,3.24356 -1.54736,1.69976 -3.55367,4.5416 -4.45678,6.31522 -0.90321,1.77364 -3.03627,7.49054 -4.7398,12.70614 -1.70337,5.21562 -3.61036,14.58649 -4.23797,20.82352 -0.79364,7.88004 -0.59758,14.37967 0.64,21.30012 0.98031,5.47747 3.56304,14.53055 5.7408,20.11853 2.17774,5.58798 6.00371,13.71617 8.49916,18.06202 2.49563,4.34587 6.87488,11.32067 9.73421,15.49965 4.31972,6.31349 5.71236,7.45524 8.23206,6.75964 1.66796,-0.46043 13.72128,-6.25393 26.78651,-12.87604 13.06527,-6.62214 29.66779,-16.26102 36.89296,-21.41821 7.2253,-5.15723 19.603,-15.5799 27.5068,-23.16338 7.90383,-7.58352 18.20601,-18.71418 22.89347,-24.73482 4.68744,-6.02064 11.33863,-15.63153 14.77912,-21.35618 3.44065,-5.72471 9.21247,-16.72756 12.82693,-24.45077 3.61462,-7.72322 8.64979,-20.68422 11.18802,-28.80352 2.53809,-8.11933 5.71887,-20.76002 7.06901,-28.08878 1.35018,-7.32873 3.21776,-19.4659 4.1515,-26.97134 0.93376,-7.50547 1.73242,-25.08811 1.77537,-39.0742 0.0471,-15.33029 -0.84422,-33.64115 -2.24647,-46.10683 C 299.63528,93.382589 296.0469,72.105019 292.94148,57.471714 289.83653,42.838604 285.28395,24.001623 282.8241,15.612442 279.60323,4.6280953 277.70782,0.2608163 276.05243,0.0083023 Z M 176.63262,162.75695 139.95875,187.24284 c -20.17052,13.46751 -41.650681,28.78183 -47.733411,34.0325 -6.08271,5.25068 -14.21258,13.74471 -18.06786,18.87443 -3.855305,5.12969 -9.137355,13.76042 -11.736205,19.17931 -2.5988,5.41882 -5.65888,13.41896 -6.80117,17.78017 -1.1424,4.3612 -2.20989,15.33513 -2.37391,24.3858 -0.17989,9.92866 0.52505,21.13712 1.78075,28.25725 1.14487,6.49047 3.42336,16.1797 5.06089,21.53346 1.63755,5.35378 2.53615,10.151 1.99629,10.65766 -0.53985,0.50664 -6.08327,2.03935 -12.31819,3.40575 -6.23494,1.36639 -18.62212,3.54059 -27.524438,4.83328 -14.4387295,2.09654 -16.5178015,2.73895 -19.2693705,5.94119 -1.696587,1.97439 -3.03349102,5.27893 -2.96995102,7.34496 0.06344,2.06604 1.56047602,5.3862 3.32569002,7.37903 l 3.210237,3.62366 14.2485745,-1.2019 c 7.837098,-0.66094 20.911738,-2.57489 29.055578,-4.25442 8.14384,-1.67948 16.70949,-3.48627 19.03479,-4.01605 4.196755,-0.95615 4.295785,-0.84404 13.521645,15.26992 5.11177,8.92815 13.03231,21.23428 17.601591,27.34819 4.56926,6.1139 9.64918,12.13336 11.28759,13.3752 1.63825,1.24188 4.98127,2.18039 7.4287,2.08793 2.44725,-0.0925 5.44074,-0.92971 6.65038,-1.8605 1.20987,-0.93077 2.90156,-3.02737 3.75935,-4.65935 0.85791,-1.63191 1.52667,-3.98453 1.48836,-5.23036 -0.0384,-1.24586 -4.28853,-8.24251 -9.44741,-15.54695 -5.15889,-7.30443 -12.1137,-17.71955 -15.45457,-23.14567 -3.34084,-5.42605 -8.517861,-15.22636 -11.504351,-21.77766 -2.98634,-6.55135 -7.20595,-17.50593 -9.37418,-24.34448 -2.1684,-6.83855 -4.80695,-18.29096 -5.86594,-25.44975 -1.38373,-9.3536 -1.58986,-16.35653 -0.73464,-24.88621 0.65456,-6.52819 2.5863,-16.05208 4.29397,-21.16491 1.70782,-5.11279 5.2358,-12.52247 7.83942,-16.46597 2.60359,-3.94347 7.76766,-10.20565 11.476721,-13.9156 3.70905,-3.70998 11.37416,-10.20573 17.03194,-14.43571 5.65786,-4.22997 18.10363,-13.02583 27.65969,-19.54497 9.55608,-6.51916 18.15082,-12.32226 19.09984,-12.89699 1.0924,-0.66161 1.50153,-0.40056 1.11399,0.71349 -0.33679,0.96778 -2.62896,9.91598 -5.09552,19.88586 -2.46655,9.96987 -4.70166,18.34522 -4.96574,18.60924 -0.26392,0.26403 -4.35869,-1.16085 -9.0999,-3.16471 l -8.62128,-3.64345 -10.23077,7.47141 c -5.62782,4.10975 -10.395,7.97211 -10.59304,8.58205 -0.19824,0.60993 7.09351,4.10226 16.20384,7.76057 9.1102,3.65833 16.58074,7.21807 16.60206,7.9114 0.0212,0.69335 -0.87492,4.58678 -1.99299,8.65041 -1.11806,4.06367 -1.72161,7.6673 -1.33919,8.0073 0.38254,0.33999 5.32173,2.55028 10.97469,4.9127 l 10.27937,4.29458 1.24579,-3.38345 c 0.68515,-1.86066 3.48923,-11.71141 6.23132,-21.89132 2.74218,-10.17991 6.71538,-26.38555 8.82928,-36.0138 2.11405,-9.6283 5.4484,-25.85721 7.41146,-36.06267 l 3.57043,-18.55419 -3.11123,-1.75757 c -1.71086,-0.96687 -6.10453,-3.0107 -9.76314,-4.54177 z" />
  <g
     inkscape:groupmode="layer"
     inkscape:label="Image"
     id="g1"
     transform="translate(257.96307,-360.56539)" />
</svg>
