<?xml version="1.0" encoding="UTF-8" standalone="no"?>
<!-- Created with Inkscape (http://www.inkscape.org/) -->

<svg
   version="1.1"
   id="svg1"
   width="236.79051"
   height="354.66373"
   viewBox="0 0 236.79051 354.66373"
   sodipodi:docname="ARCELIS_branco_logomarca.svg"
   inkscape:version="1.4.2 (f4327f4, 2025-05-13)"
   xmlns:inkscape="http://www.inkscape.org/namespaces/inkscape"
   xmlns:sodipodi="http://sodipodi.sourceforge.net/DTD/sodipodi-0.dtd"
   xmlns="http://www.w3.org/2000/svg"
   xmlns:svg="http://www.w3.org/2000/svg">
  <defs
     id="defs1">
    <rect
       x="174.07112"
       y="213.56625"
       width="152.12938"
       height="175.53391"
       id="rect32" />
  </defs>
  <sodipodi:namedview
     id="namedview1"
     pagecolor="#ffffff"
     bordercolor="#000000"
     borderopacity="0.25"
     inkscape:showpageshadow="2"
     inkscape:pageopacity="0.0"
     inkscape:pagecheckerboard="0"
     inkscape:deskcolor="#d1d1d1"
     inkscape:zoom="0.48339844"
     inkscape:cx="89.987878"
     inkscape:cy="251.34545"
     inkscape:window-width="1920"
     inkscape:window-height="1057"
     inkscape:window-x="1912"
     inkscape:window-y="-8"
     inkscape:window-maximized="1"
     inkscape:current-layer="g1" />
  <g
     inkscape:groupmode="layer"
     inkscape:label="Image"
     id="g1"
     transform="translate(-393.60474,-214.53231)">
    <path
       id="path31"
       style="fill:#ffffff;fill-opacity:1;stroke-width:1.03317"
       d="m 609.69575,222.8161 c -0.91753,-0.17616 -8.73861,2.24489 -17.38111,5.38143 -8.6426,3.13654 -20.68443,7.88399 -26.75881,10.54928 -6.07438,2.66528 -17.09857,7.95923 -24.49726,11.76418 -7.39869,3.80494 -17.17739,9.12116 -21.73043,11.81254 -4.55304,2.69138 -12.2363,7.59452 -17.0739,10.89581 -4.83762,3.30131 -13.68499,9.91105 -19.66086,14.68961 -5.97587,4.77857 -15.52174,13.51828 -21.21304,19.42026 -5.6913,5.90202 -12.95123,14.20407 -16.13412,18.44917 -3.18278,4.2451 -8.18579,11.70793 -11.11785,16.5855 -2.93215,4.87756 -7.00936,12.48864 -9.06039,16.91391 -2.05095,4.42526 -5.5666,13.62679 -7.81342,20.4478 -2.24683,6.82098 -5.04302,17.77794 -6.21273,24.34836 -1.56138,8.77155 -2.13371,16.47074 -2.15648,28.96821 -0.0195,10.89177 0.58726,20.98034 1.68557,28.01927 0.94392,6.04991 2.44582,13.47713 3.33678,16.50492 0.89104,3.02777 2.5892,6.55078 3.7733,7.82734 1.4132,1.52354 3.3509,2.321 5.64077,2.321 2.32402,0 4.33665,-0.8457 6.02884,-2.53256 1.39695,-1.3926 2.53642,-3.59755 2.53642,-4.89989 -0.002,-1.30235 -1.02088,-7.24145 -2.26561,-13.1987 -1.88455,-9.01895 -2.27361,-14.36984 -2.32017,-31.97826 -0.0444,-16.54662 0.35397,-23.16654 1.82906,-30.43093 1.03685,-5.10621 3.5254,-14.39022 5.53163,-20.63113 2.00623,-6.24093 6.40969,-16.68543 9.78597,-23.21004 3.37628,-6.52459 9.2663,-16.26059 13.08838,-21.63449 3.82207,-5.37391 12.53622,-15.38562 19.36578,-22.24898 6.82956,-6.86337 17.53956,-16.25904 23.79999,-20.87896 6.26043,-4.61992 18.36739,-12.55257 26.90433,-17.62713 8.53696,-5.07457 21.10956,-11.98939 27.93913,-15.36657 6.82956,-3.37716 18.23804,-8.47443 25.35217,-11.32697 7.11412,-2.85257 13.92858,-5.48377 15.14176,-5.84885 1.48109,-0.44575 2.40343,-0.1497 2.80927,0.90462 0.33249,0.8636 2.24167,11.43948 4.24221,23.50016 2.00065,12.06067 4.10657,27.49905 4.68077,34.30731 0.5741,6.80829 1.03883,17.9491 1.03883,24.75738 -0.004,6.80827 -0.43776,17.56614 -0.96405,23.90714 -0.52629,6.34099 -1.72047,16.0892 -2.65365,21.66268 -0.93327,5.5735 -2.85901,14.77124 -4.2806,20.43973 -1.42158,5.66851 -4.2051,14.48833 -6.18444,19.5996 -1.97923,5.11126 -5.89562,13.64363 -8.70268,18.96089 -2.80716,5.31728 -7.75414,13.338 -10.99455,17.8246 -3.24053,4.48658 -9.32064,11.83751 -13.51079,16.33365 -4.19004,4.49613 -11.20494,11.05577 -15.59044,14.57678 -4.38542,3.521 -11.23467,8.49583 -15.21858,11.05498 -3.98392,2.55917 -10.9687,6.65424 -15.52174,9.10068 -4.55304,2.44643 -8.82522,4.45541 -9.49493,4.46471 -0.66972,0.01 -2.42178,-2.60573 -3.89458,-5.81259 -1.44969,-3.15675 -2.52153,-5.83871 -2.41112,-6.03018 l 0.002,-0.002 v -0.002 l 0.002,-0.002 0.002,-0.002 c 0.15045,-0.11366 4.69652,-3.1311 10.10326,-6.70513 5.40674,-3.57403 13.63644,-9.66949 18.28655,-13.54523 4.65021,-3.87572 11.56443,-10.46891 15.36612,-14.65335 3.80168,-4.18444 9.90017,-11.73633 13.55119,-16.78093 3.65091,-5.04458 9.62017,-15.20579 13.26623,-22.58142 3.64605,-7.37564 8.50704,-19.23986 10.80054,-26.36514 2.29349,-7.12529 5.23435,-18.7303 6.53611,-25.78893 2.07328,-11.24168 2.36439,-16.16139 2.37474,-39.6545 0.007,-22.9646 -0.34164,-29.11917 -2.42527,-42.80961 -1.33839,-8.79403 -2.61126,-16.17843 -2.82949,-16.40821 -0.21824,-0.22976 -3.54679,0.88512 -7.39505,2.47614 -3.84825,1.59104 -13.95879,6.40823 -22.46812,10.70441 -8.50942,4.2962 -19.9179,10.77123 -25.35216,14.38942 -5.43436,3.61818 -13.10179,9.20069 -17.03955,12.4069 -3.93786,3.20623 -11.39889,10.00851 -16.58077,15.11472 -5.18188,5.10621 -12.49439,13.22972 -16.2493,18.05225 -3.75492,4.82253 -8.8249,12.01763 -11.26741,15.98913 -2.4426,3.9715 -6.22806,11.002 -8.41165,15.62447 -2.1836,4.62244 -3.97138,8.72778 -3.97138,9.12281 0,0.007 8.8e-4,0.0149 0.005,0.0202 6.1e-4,8.8e-4 0.004,0.006 0.005,0.006 l 0.002,0.002 c 8.8e-4,7e-4 0.006,0.004 0.006,0.005 0.26908,0.12335 3.48673,-2.5467 7.37889,-6.13898 4.0669,-3.75358 11.99711,-9.89805 17.62363,-13.65604 5.62653,-3.75799 10.56571,-7.41848 10.97434,-8.13358 0.40864,-0.71511 3.76848,-4.86081 7.46782,-9.21149 3.69935,-4.35066 11.55713,-12.04197 17.45993,-17.09321 5.90282,-5.05125 15.24597,-12.18184 20.76436,-15.84408 5.51829,-3.66225 15.03284,-9.29422 21.14229,-12.51769 6.10946,-3.22348 11.36659,-5.60283 11.68375,-5.28673 0.31705,0.31611 0.97134,3.96567 1.45314,8.11142 0.48179,4.14576 0.89676,14.82506 0.9216,23.73185 0.025,8.9068 -0.66233,21.58176 -1.52792,28.16432 -0.86559,6.58258 -2.46702,15.77386 -3.55706,20.42564 -1.09004,4.65176 -3.4612,12.63576 -5.27092,17.74197 -1.80974,5.10621 -5.39185,13.46181 -7.95894,18.56803 -2.56719,5.10621 -7.41328,13.28856 -10.77021,18.1832 -3.35695,4.89461 -9.23476,12.4118 -13.06211,16.70437 -3.82735,4.29257 -10.45292,10.69798 -14.72139,14.2363 -4.26848,3.53831 -10.49611,8.19895 -13.84022,10.35586 -3.34421,2.1569 -6.48813,3.66986 -6.9868,3.36263 -0.49866,-0.30725 -0.64239,-2.50273 -0.31933,-4.87975 0.32316,-2.37702 1.08676,-6.64266 1.69769,-9.47943 0.61094,-2.8368 2.49852,-8.27559 4.1937,-12.08453 2.11251,-4.74696 2.87332,-7.75661 2.41719,-9.5681 -0.36591,-1.45353 -1.58647,-3.558 -2.71024,-4.67828 -1.32235,-1.31823 -3.4385,-2.03692 -6.00053,-2.03692 -2.78718,0 -4.58637,0.6869 -6.07935,2.321 -1.16639,1.27656 -2.69305,3.42347 -3.39133,4.77095 -0.69837,1.34751 -2.3819,5.70779 -3.74098,9.69099 -1.35898,3.98323 -2.95958,11.16498 -3.55706,15.95892 -0.7554,6.0568 -0.75815,11.07108 -0.0104,16.43238 0.592,4.24344 2.27225,11.27786 3.73491,15.63253 1.46266,4.35467 4.07017,10.70319 5.79236,14.10734 1.72229,3.40414 4.75911,8.87566 6.75034,12.15908 3.00822,4.96048 3.99808,5.87083 5.85097,5.38947 1.22652,-0.31861 10.14531,-4.52217 19.82052,-9.34243 9.67522,-4.82028 21.99734,-11.88896 27.38131,-15.70706 5.38408,-3.81812 14.64316,-11.58286 20.5764,-17.25642 5.93322,-5.67357 13.69479,-14.02918 17.24772,-18.56803 3.55291,-4.53885 8.61824,-11.8024 11.25528,-16.14024 2.63715,-4.33786 7.09246,-12.69346 9.90117,-18.56802 2.80881,-5.87456 6.77089,-15.75557 8.80373,-21.95887 2.03272,-6.20329 4.63544,-15.87774 5.78426,-21.49749 1.14882,-5.61973 2.7827,-14.93462 3.63185,-20.69964 0.84914,-5.765 1.82571,-19.30058 2.17061,-30.08036 0.37801,-11.8158 0.13868,-25.94949 -0.6043,-35.58871 -0.67778,-8.79402 -2.81723,-25.27315 -4.75352,-36.62027 -1.93629,-11.34713 -4.83353,-25.96598 -6.4391,-32.48598 -2.10226,-8.53697 -3.38642,-11.94456 -4.5878,-12.1752 z m -76.1434,123.28717 -27.29036,18.07642 c -15.00961,9.94226 -31.01558,21.27957 -35.56862,25.19457 -4.55303,3.91499 -10.67151,10.2855 -13.59767,14.15571 -2.92616,3.87021 -6.97117,10.40801 -8.98766,14.52843 -2.01647,4.1204 -4.42713,10.22048 -5.35783,13.55733 -0.93077,3.33682 -1.95519,11.77248 -2.27773,18.74531 -0.35379,7.64926 -0.091,16.30423 0.66493,21.81985 0.68928,5.02786 2.13342,12.54601 3.20743,16.70839 1.074,4.1624 1.62168,7.8797 1.21667,8.25851 -0.40501,0.37879 -4.48144,1.43964 -9.05838,2.35727 -4.57695,0.91762 -13.65799,2.32412 -20.17825,3.12691 -10.57527,1.30203 -12.10564,1.75197 -14.1838,4.16047 -1.28137,1.48499 -2.33028,4.00309 -2.33028,5.597 0,1.59392 1.01709,4.1857 2.25954,5.76021 l 2.25955,2.86296 10.41653,-0.61651 c 5.72939,-0.339 15.30589,-1.52993 21.28176,-2.6474 5.97587,-1.11745 12.26217,-2.32384 13.96956,-2.68164 3.08158,-0.64573 3.15129,-0.55716 9.51717,12.06438 3.52715,6.99315 9.02665,16.65116 12.22133,21.46324 3.19469,4.81208 6.76383,9.56245 7.93065,10.55532 1.16672,0.99287 3.5833,1.78903 5.36995,1.77098 1.78654,-0.018 3.98805,-0.5983 4.89095,-1.28944 0.90306,-0.69115 2.1836,-2.27047 2.84566,-3.50972 0.66216,-1.23926 1.20252,-3.03815 1.20252,-3.99931 0,-0.96116 -2.94224,-6.44671 -6.54013,-12.18929 -3.59794,-5.74259 -8.43563,-13.92198 -10.75002,-18.17716 -2.31439,-4.25518 -5.86956,-11.92197 -7.90032,-17.0368 -2.03066,-5.11483 -4.86184,-13.65054 -6.28953,-18.96898 -1.4278,-5.31842 -3.09497,-14.20349 -3.70663,-19.74463 -0.79927,-7.24001 -0.79254,-12.64245 0.0223,-19.19865 0.62365,-5.01779 2.24575,-12.31693 3.60556,-16.22083 1.35991,-3.90388 4.09853,-9.53865 6.08541,-12.52173 1.98688,-2.98307 5.89275,-7.69773 8.68045,-10.47675 2.7877,-2.77901 8.52247,-7.61932 12.74278,-10.75679 4.22036,-3.13747 13.49258,-9.64677 20.60672,-14.46396 7.11412,-4.81723 13.51123,-9.10341 14.21613,-9.52579 0.81137,-0.4862 1.10383,-0.2761 0.79628,0.5742 -0.26728,0.73867 -2.13928,7.58619 -4.16135,15.21749 -2.02207,7.63128 -3.83961,14.03851 -4.03807,14.23629 -0.19837,0.19777 -3.15221,-0.98959 -6.5644,-2.63733 l -6.20466,-2.99594 -7.62747,5.53655 c -4.19573,3.04546 -7.75838,5.91894 -7.91649,6.38479 -0.15822,0.46582 5.08037,3.31635 11.6413,6.33439 6.56084,3.01805 11.92829,5.92443 11.92829,6.45932 0,0.53491 -0.74081,3.51652 -1.64717,6.62453 -0.90637,3.10801 -1.42725,5.87262 -1.15603,6.14301 0.27131,0.27038 3.82325,2.08156 7.89222,4.02548 l 7.39911,3.5339 0.98425,-2.58091 c 0.54129,-1.41932 2.80678,-8.95145 5.03446,-16.73862 2.22778,-7.78718 5.48822,-20.19233 7.24549,-27.56797 1.75736,-7.37563 4.55254,-19.81262 6.21275,-27.63645 l 3.01944,-14.2242 -2.22922,-1.42242 c -1.2258,-0.7825 -4.3837,-2.45346 -7.01711,-3.71321 z" />
    <text
       xml:space="preserve"
       style="font-style:normal;font-variant:normal;font-weight:normal;font-stretch:normal;font-size:96px;font-family:Montserrat;-inkscape-font-specification:'Montserrat, @wght=600';font-variant-ligatures:normal;font-variant-caps:normal;font-variant-numeric:normal;font-variant-east-asian:normal;font-variation-settings:'wght' 600;writing-mode:lr-tb;direction:ltr;fill:#ffffff;fill-opacity:1;stroke-width:1.0185"
       x="292.69995"
       y="680.57727"
       id="text33"
       transform="scale(1.0184998,0.98183622)"><tspan
         sodipodi:role="line"
         id="tspan33"
         x="292.69995"
         y="680.57727"
         style="font-style:normal;font-variant:normal;font-weight:normal;font-stretch:normal;font-size:96px;font-family:Montserrat;-inkscape-font-specification:'Montserrat, @wght=600';font-variant-ligatures:normal;font-variant-caps:normal;font-variant-numeric:normal;font-variant-east-asian:normal;font-variation-settings:'wght' 600;fill:#ffffff;fill-opacity:1;stroke-width:1.0185">ARCELIS</tspan></text>
    <text
       xml:space="preserve"
       style="font-style:normal;font-variant:normal;font-weight:normal;font-stretch:normal;font-size:29.3333px;font-family:Montserrat;-inkscape-font-specification:'Montserrat, @wght=500';font-variant-ligatures:normal;font-variant-caps:normal;font-variant-numeric:normal;font-variant-east-asian:normal;font-variation-settings:'wght' 500;writing-mode:lr-tb;direction:ltr;fill:#ffffff;fill-opacity:1"
       x="288.97797"
       y="715.76569"
       id="text34"><tspan
         sodipodi:role="line"
         id="tspan34"
         x="288.97797"
         y="715.76569">PERFORMANCE ENERGÉTICA</tspan></text>
  </g>
</svg>
