<?xml version="1.0" encoding="UTF-8" standalone="no"?>
<!-- Created with Inkscape (http://www.inkscape.org/) -->

<svg
   version="1.1"
   id="svg1"
   width="223.03337"
   height="345.35663"
   viewBox="0 0 223.03337 345.35663"
   sodipodi:docname="ARCELIS_preto_logomarca.svg"
   inkscape:version="1.4.2 (f4327f4, 2025-05-13)"
   xmlns:inkscape="http://www.inkscape.org/namespaces/inkscape"
   xmlns:sodipodi="http://sodipodi.sourceforge.net/DTD/sodipodi-0.dtd"
   xmlns="http://www.w3.org/2000/svg"
   xmlns:svg="http://www.w3.org/2000/svg">
  <defs
     id="defs1">
    <rect
       x="174.07112"
       y="213.56625"
       width="152.12938"
       height="175.53391"
       id="rect32" />
  </defs>
  <sodipodi:namedview
     id="namedview1"
     pagecolor="#ffffff"
     bordercolor="#000000"
     borderopacity="0.25"
     inkscape:showpageshadow="2"
     inkscape:pageopacity="0.0"
     inkscape:pagecheckerboard="0"
     inkscape:deskcolor="#d1d1d1"
     inkscape:zoom="0.68362863"
     inkscape:cx="-414.69884"
     inkscape:cy="338.63415"
     inkscape:window-width="1920"
     inkscape:window-height="1009"
     inkscape:window-x="1912"
     inkscape:window-y="-8"
     inkscape:window-maximized="1"
     inkscape:current-layer="g1" />
  <g
     inkscape:groupmode="layer"
     inkscape:label="Image"
     id="g1"
     transform="translate(-395.00586,-223.309)">
    <path
       id="path31"
       style="fill:#000000;stroke-width:1.00951"
       d="m 599.22796,227.70634 c -0.88,-0.17536 -8.38104,2.23471 -16.66989,5.35701 -8.28894,3.1223 -19.83804,7.84821 -25.66385,10.50142 -5.82582,2.65318 -16.3989,7.92311 -23.49484,11.71079 -7.09593,3.78767 -16.4745,9.07977 -20.84122,11.75894 -4.36674,2.67916 -11.7356,7.56006 -16.37525,10.84637 -4.63966,3.28633 -13.125,9.86607 -18.85634,14.62295 -5.73134,4.75688 -14.88659,13.45692 -20.34502,19.33214 -5.45841,5.87523 -12.42126,14.1396 -15.4739,18.36544 -3.05254,4.22584 -7.85084,11.65481 -10.66291,16.51024 -2.81218,4.85543 -6.72255,12.43197 -8.68965,16.83716 -1.96703,4.40518 -5.33882,13.56496 -7.49369,20.355 -2.1549,6.79004 -4.83667,17.69727 -5.95851,24.23788 -1.49749,8.73175 -2.0464,16.396 -2.06824,28.83677 -0.0187,10.84232 0.56322,20.88512 1.61659,27.89211 0.9053,6.02246 2.34575,13.41596 3.20024,16.43002 0.85458,3.01403 2.48325,6.52106 3.61891,7.79182 1.35536,1.51662 3.21377,2.31047 5.40995,2.31047 2.22892,0 4.15919,-0.84187 5.78214,-2.52107 1.33978,-1.38627 2.43263,-3.58123 2.43263,-4.87766 -0.002,-1.29642 -0.97911,-7.20859 -2.17291,-13.1388 -1.80743,-8.97802 -2.18057,-14.30462 -2.22523,-31.83315 -0.0426,-16.47152 0.33949,-23.06141 1.75422,-30.29284 0.99442,-5.08303 3.38114,-14.32492 5.30528,-20.53752 1.92413,-6.21259 6.1474,-16.6097 9.38553,-23.1047 3.23813,-6.49498 8.88713,-16.18681 12.55281,-21.53631 3.66567,-5.34954 12.02324,-15.31582 18.57333,-22.14803 6.55011,-6.83222 16.82185,-16.18525 22.82611,-20.78421 6.00425,-4.59895 17.61579,-12.4956 25.80341,-17.54715 8.18764,-5.05153 20.24577,-11.93498 26.79587,-15.29683 6.5501,-3.36184 17.49174,-8.43598 24.31476,-11.27558 6.82302,-2.83962 13.35864,-5.45888 14.52218,-5.82231 1.42048,-0.44372 2.30508,-0.14901 2.69431,0.90052 0.31888,0.85968 2.14994,11.38757 4.06862,23.39353 1.91878,12.00593 3.93852,27.37425 4.48923,34.15163 0.55061,6.77739 0.99632,17.86765 0.99632,24.64503 -0.004,6.77738 -0.41984,17.48642 -0.9246,23.79865 -0.50475,6.31222 -1.65006,16.01619 -2.54506,21.56439 -0.89508,5.5482 -2.74203,14.70421 -4.10544,20.34698 -1.3634,5.64279 -4.03303,14.42257 -5.93138,19.51065 -1.89824,5.08807 -5.65436,13.58173 -8.34656,18.87485 -2.6923,5.29315 -7.43686,13.27747 -10.54466,17.74371 -3.10794,4.46623 -8.93924,11.78381 -12.95794,16.25953 -4.01858,4.47573 -10.74644,11.00561 -14.95248,14.51064 -4.20597,3.50502 -10.77494,8.45727 -14.59584,11.00482 -3.82089,2.54755 -10.51986,6.62403 -14.88659,9.05937 -4.36674,2.43534 -8.4641,4.4352 -9.1064,4.44445 -0.64231,0.01 -2.32268,-2.5939 -3.73522,-5.78621 -1.39037,-3.14242 -2.41835,-5.81222 -2.31245,-6.00282 l 0.002,-0.002 v -0.002 l 0.002,-0.002 0.002,-0.002 c 0.14429,-0.11314 4.50435,-3.11689 9.68983,-6.67469 5.1855,-3.55783 13.07845,-9.62563 17.53827,-13.48378 4.45993,-3.85813 11.09122,-10.4214 14.73734,-14.58685 3.64612,-4.16545 9.49507,-11.68307 12.99669,-16.70478 3.50152,-5.02169 9.22652,-15.1368 12.72338,-22.47895 3.49686,-7.34217 8.15894,-19.15256 10.35858,-26.2455 2.19964,-7.09296 5.02017,-18.64531 6.26866,-25.6719 1.98844,-11.19067 2.26764,-16.08806 2.27756,-39.47456 0.007,-22.8604 -0.32765,-28.98703 -2.32602,-42.61534 -1.28362,-8.75413 -2.50441,-16.10503 -2.71371,-16.33375 -0.20931,-0.22873 -3.40166,0.88109 -7.09245,2.4649 -3.69078,1.58381 -13.3876,6.37914 -21.54873,10.65583 -8.16122,4.2767 -19.10287,10.72236 -24.31475,14.32412 -5.212,3.60176 -12.56567,9.15894 -16.3423,12.3506 -3.77673,3.19168 -10.93246,9.9631 -15.9023,15.04613 -4.96983,5.08304 -11.98312,13.16969 -15.58438,17.97034 -3.60126,4.80063 -8.46379,11.96309 -10.80635,15.91657 -2.34265,3.95348 -5.97321,10.95208 -8.06745,15.55357 -2.09424,4.60147 -3.80887,8.68816 -3.80887,9.08142 0,0.007 8.5e-4,0.0148 0.005,0.02 5.8e-4,8.6e-4 0.004,0.006 0.005,0.006 l 0.002,0.002 c 8.4e-4,7e-4 0.006,0.004 0.006,0.005 0.25807,0.12278 3.34405,-2.53515 7.07695,-6.11113 3.90047,-3.73655 11.50619,-9.85313 16.90247,-13.59408 5.3963,-3.74092 10.13337,-7.38481 10.52527,-8.09667 0.39192,-0.71186 3.61428,-4.83875 7.16224,-9.16968 3.54798,-4.33092 11.08421,-11.98733 16.74548,-17.01565 5.66128,-5.02833 14.62212,-12.12655 19.91469,-15.77218 5.29248,-3.64563 14.4177,-9.25204 20.27716,-12.46089 5.85946,-3.20884 10.90146,-5.5774 11.20565,-5.26274 0.30407,0.31468 0.9316,3.94767 1.39367,8.07462 0.46208,4.12694 0.86008,14.75777 0.8839,23.62415 0.0239,8.86639 -0.63523,21.48383 -1.4654,28.03653 -0.83018,6.5527 -2.36608,15.70228 -3.41151,20.33295 -1.04544,4.63065 -3.31956,12.57842 -5.05524,17.66145 -1.73568,5.08304 -5.17121,13.40073 -7.63326,18.48377 -2.46214,5.08304 -7.10992,13.22827 -10.32949,18.10069 -3.21959,4.87241 -8.85688,12.35548 -12.52762,16.62857 -3.67073,4.27309 -10.02519,10.64943 -14.119,14.17169 -4.0938,3.52227 -10.06661,8.16176 -13.27387,10.30888 -3.20737,2.14711 -6.22265,3.65321 -6.7009,3.34737 -0.47826,-0.30585 -0.61611,-2.49138 -0.30627,-4.85761 0.30994,-2.36624 1.04229,-6.61252 1.62822,-9.43642 0.58594,-2.82391 2.39628,-8.23802 4.02209,-12.02969 2.02607,-4.72542 2.75576,-7.72141 2.31829,-9.52467 -0.35094,-1.44694 -1.52155,-3.54186 -2.59934,-4.65706 -1.26825,-1.31225 -3.29781,-2.02767 -5.75499,-2.02767 -2.67313,0 -4.39869,0.68378 -5.83059,2.31047 -1.11866,1.27076 -2.58285,3.40792 -3.25255,4.7493 -0.66979,1.34139 -2.28443,5.68188 -3.58791,9.64701 -1.30337,3.96515 -2.83848,11.11431 -3.41151,15.8865 -0.72448,6.02931 -0.72712,11.02084 -0.01,16.35781 0.56778,4.22418 2.17927,11.22668 3.58208,15.56159 1.4028,4.33491 3.90362,10.65463 5.55533,14.04333 1.65182,3.38869 4.56437,8.83538 6.47412,12.1039 2.88513,4.93798 3.83449,5.8442 5.61155,5.36502 1.17634,-0.31717 9.73017,-4.50165 19.00947,-9.30004 9.27931,-4.7984 21.09722,-11.83502 26.26088,-15.63579 5.16376,-3.80079 14.04397,-11.53029 19.73441,-17.17811 5.69044,-5.64783 13.13441,-13.96552 16.54196,-18.48378 3.40753,-4.51825 8.26558,-11.74883 10.79472,-16.06698 2.52923,-4.31818 6.80223,-12.63588 9.49601,-18.48377 2.69387,-5.84791 6.49383,-15.68408 8.44348,-21.85922 1.94955,-6.17514 4.44577,-15.80569 5.54757,-21.39995 1.10181,-5.59423 2.66884,-14.86685 3.48324,-20.6057 0.8144,-5.73884 1.75101,-19.213 2.08179,-29.94386 0.36255,-11.76218 0.133,-25.83174 -0.57957,-35.42722 -0.65005,-8.75411 -2.70196,-25.15846 -4.55901,-36.45408 -1.85706,-11.29565 -4.63575,-25.84816 -6.17561,-32.33858 -2.01624,-8.49822 -3.24785,-11.89035 -4.40008,-12.11995 z m -73.02765,122.72772 -26.17364,17.9944 c -14.39543,9.89714 -29.74643,21.183 -34.11316,25.08024 -4.36673,3.89723 -10.23484,10.23883 -13.04126,14.09147 -2.80643,3.85265 -6.68592,10.36079 -8.61989,14.46251 -1.93395,4.10171 -4.24598,10.17409 -5.13859,13.4958 -0.89269,3.32168 -1.87519,11.71906 -2.18452,18.66025 -0.33931,7.61454 -0.0873,16.23025 0.63771,21.72083 0.66107,5.00505 2.04613,12.48908 3.07618,16.63258 1.03006,4.1435 1.55533,7.84394 1.16689,8.22103 -0.38843,0.37707 -4.29805,1.43311 -8.68771,2.34657 -4.38966,0.91346 -13.09912,2.31358 -19.35257,3.11272 -10.14252,1.29612 -11.61028,1.74402 -13.6034,4.14159 -1.22893,1.47825 -2.23492,3.98492 -2.23492,5.5716 0,1.58669 0.97547,4.16671 2.16708,5.73407 l 2.16709,2.84998 9.99029,-0.61372 c 5.49494,-0.33747 14.67957,-1.52299 20.41091,-2.63539 5.73134,-1.11238 11.7604,-2.31329 13.39794,-2.66947 2.95547,-0.6428 3.02233,-0.55462 9.12772,12.00964 3.38283,6.96141 8.65729,16.57559 11.72124,21.36584 3.06396,4.79024 6.48705,9.51906 7.60613,10.50743 1.11898,0.98837 3.43667,1.7809 5.15021,1.76294 1.71344,-0.0179 3.82487,-0.59558 4.69082,-1.2836 0.86611,-0.68801 2.09424,-2.26015 2.72922,-3.4938 0.63506,-1.23363 1.15331,-3.02435 1.15331,-3.98114 0,-0.95679 -2.82185,-6.41747 -6.27252,-12.13399 -3.45071,-5.71653 -8.09044,-13.8588 -10.31013,-18.09468 -2.21968,-4.23585 -5.62938,-11.86786 -7.57704,-16.95948 -1.94756,-5.09162 -4.66289,-13.5886 -6.03216,-18.8829 -1.36937,-5.29428 -2.96833,-14.13904 -3.55496,-19.65503 -0.76656,-7.20717 -0.76011,-12.58508 0.0214,-19.11154 0.59813,-4.99502 2.15385,-12.26104 3.45801,-16.14722 1.30427,-3.88616 3.93083,-9.49536 5.83641,-12.4649 1.90557,-2.96954 5.65161,-7.6628 8.32525,-10.42921 2.67362,-2.76641 8.17373,-7.58476 12.22134,-10.70799 4.04767,-3.12323 12.94047,-9.60298 19.7635,-14.39832 6.82302,-4.79536 12.95836,-9.0621 13.63441,-9.48256 0.77817,-0.484 1.05867,-0.27485 0.7637,0.5716 -0.25634,0.7353 -2.05174,7.55177 -3.99106,15.14844 -1.93933,7.59664 -3.68249,13.9748 -3.87284,14.17167 -0.19025,0.19688 -3.02322,-0.9851 -6.29579,-2.62535 l -5.95076,-2.98235 -7.31535,5.51143 c -4.02405,3.03163 -7.44092,5.89207 -7.59255,6.3558 -0.15175,0.46372 4.87248,3.30132 11.16494,6.30566 6.29236,3.00435 11.44018,5.89754 11.44018,6.43001 0,0.53248 -0.71049,3.50056 -1.57977,6.59447 -0.86928,3.09391 -1.36885,5.84597 -1.10873,6.11513 0.26022,0.26916 3.66681,2.07211 7.56929,4.00722 l 7.09632,3.51786 0.94398,-2.5692 c 0.51914,-1.41288 2.69194,-8.91083 4.82846,-16.66267 2.13661,-7.75184 5.26364,-20.1007 6.94899,-27.44285 1.68547,-7.34218 4.36626,-19.72272 5.95853,-27.51105 l 2.89589,-14.15965 -2.13799,-1.41597 c -1.17565,-0.77895 -4.20433,-2.44233 -6.72998,-3.69636 z" />
  </g>
</svg>
