<?xml version="1.0" encoding="UTF-8" standalone="no"?>
<!-- Created with Inkscape (http://www.inkscape.org/) -->

<svg
   version="1.1"
   id="svg1"
   width="427.97894"
   height="501.6774"
   viewBox="0 0 427.97894 501.6774"
   sodipodi:docname="ARCELIS_branco_vertical.svg"
   inkscape:version="1.4.2 (f4327f4, 2025-05-13)"
   xmlns:inkscape="http://www.inkscape.org/namespaces/inkscape"
   xmlns:sodipodi="http://sodipodi.sourceforge.net/DTD/sodipodi-0.dtd"
   xmlns="http://www.w3.org/2000/svg"
   xmlns:svg="http://www.w3.org/2000/svg">
  <defs
     id="defs1">
    <rect
       x="174.07112"
       y="213.56625"
       width="152.12938"
       height="175.53391"
       id="rect32" />
  </defs>
  <sodipodi:namedview
     id="namedview1"
     pagecolor="#ffffff"
     bordercolor="#000000"
     borderopacity="0.25"
     inkscape:showpageshadow="2"
     inkscape:pageopacity="0.0"
     inkscape:pagecheckerboard="0"
     inkscape:deskcolor="#d1d1d1"
     inkscape:zoom="0.48339844"
     inkscape:cx="-201.69697"
     inkscape:cy="36.20202"
     inkscape:window-width="1920"
     inkscape:window-height="1009"
     inkscape:window-x="1912"
     inkscape:window-y="-8"
     inkscape:window-maximized="1"
     inkscape:current-layer="g1" />
  <g
     inkscape:groupmode="layer"
     inkscape:label="Image"
     id="g1"
     transform="translate(-291.84255,-214.53231)">
    <path
       id="path31"
       style="fill:#ffffff;fill-opacity:1;stroke-width:1.0459"
       d="m 606.34494,220.74754 c -0.92699,-0.17868 -8.82859,2.27709 -17.56007,5.45862 -8.73159,3.18153 -20.89741,7.99707 -27.03433,10.7006 -6.13693,2.70351 -17.27462,8.07339 -24.74949,11.93292 -7.47487,3.85951 -17.35425,9.25198 -21.95417,11.98197 -4.59992,2.72998 -12.36229,7.70345 -17.2497,11.0521 -4.88742,3.34865 -13.82589,10.0532 -19.86329,14.90031 -6.0374,4.8471 -15.68155,13.71216 -21.43146,19.69882 -5.7499,5.98667 -13.08457,14.40778 -16.30023,18.71378 -3.21555,4.306 -8.27008,11.87587 -11.23232,16.82339 -2.96235,4.94753 -7.08153,12.66778 -9.15369,17.15652 -2.07206,4.48873 -5.62391,13.82225 -7.89386,20.74109 -2.26997,6.91882 -5.09495,18.03294 -6.2767,24.6976 -1.57746,8.89737 -2.15568,16.70699 -2.17868,29.38372 -0.0197,11.04799 0.5933,21.28126 1.70292,28.42116 0.95364,6.13669 2.47101,13.67043 3.37113,16.74165 0.90022,3.0712 2.61586,6.64475 3.81216,7.93961 1.42775,1.5454 3.3854,2.3543 5.69885,2.3543 2.34795,0 4.3813,-0.85784 6.09091,-2.56889 1.41133,-1.41257 2.56254,-3.64915 2.56254,-4.97017 -0.002,-1.32102 -1.03139,-7.34532 -2.28894,-13.38801 -1.90395,-9.14831 -2.29702,-14.57595 -2.34406,-32.43694 -0.0448,-16.78395 0.35761,-23.49884 1.84789,-30.86742 1.04753,-5.17945 3.5617,-14.59662 5.58859,-20.92706 2.02689,-6.33043 6.47568,-16.92475 9.88673,-23.54294 3.41104,-6.61818 9.36171,-16.49383 13.22314,-21.9448 3.86142,-5.451 12.6653,-15.60631 19.56517,-22.56811 6.89988,-6.96182 17.72016,-16.49225 24.04505,-21.17844 6.32488,-4.68618 18.55649,-12.73261 27.18134,-17.87997 8.62485,-5.14735 21.32691,-12.16136 28.22679,-15.58698 6.89988,-3.4256 18.42582,-8.59598 25.6132,-11.48944 7.18738,-2.89347 14.07199,-5.56242 15.29767,-5.93274 1.49634,-0.45214 2.42818,-0.15184 2.8382,0.9176 0.3359,0.87598 2.26474,11.60356 4.28588,23.83724 2.02125,12.23365 4.14885,27.89347 4.72896,34.79939 0.58001,6.90595 1.04953,18.20655 1.04953,25.11249 -0.004,6.90593 -0.44226,17.81809 -0.97397,24.25005 -0.53171,6.43194 -1.73819,16.31997 -2.68097,21.9734 -0.94288,5.65344 -2.88846,14.98311 -4.32468,20.73291 -1.43622,5.74982 -4.2484,14.69614 -6.24812,19.88071 -1.9996,5.18459 -5.95632,13.83934 -8.79228,19.23287 -2.83606,5.39355 -7.83399,13.52931 -11.10776,18.08026 -3.27389,4.55095 -9.4166,12.00731 -13.64989,16.56793 -4.23319,4.56062 -11.32031,11.21435 -15.75097,14.78586 -4.43057,3.57152 -11.35034,8.61769 -15.37528,11.21356 -4.02493,2.59586 -11.08162,6.74967 -15.68154,9.23121 -4.59992,2.48152 -8.91609,4.51932 -9.5927,4.52874 -0.67661,0.01 -2.44671,-2.6431 -3.93468,-5.89595 -1.46461,-3.20203 -2.54749,-5.92247 -2.43594,-6.11668 l 0.002,-0.002 v -0.002 l 0.002,-0.002 0.002,-0.002 c 0.152,-0.11528 4.74489,-3.176 10.20729,-6.80129 5.46241,-3.62531 13.77684,-9.8082 18.47483,-13.73952 4.69809,-3.93131 11.6835,-10.61908 15.52433,-14.86353 3.84083,-4.24446 10.00211,-11.90467 13.69072,-17.02162 3.68851,-5.11695 9.71922,-15.42391 13.40282,-22.90533 3.6836,-7.48142 8.59463,-19.51582 10.91175,-26.74331 2.3171,-7.22748 5.28824,-18.99895 6.6034,-26.15882 2.09463,-11.40293 2.38874,-16.3932 2.39919,-40.22329 0.007,-23.294 -0.34515,-29.53684 -2.45024,-43.42365 -1.35216,-8.92016 -2.63814,-16.41049 -2.85862,-16.64356 -0.22049,-0.23306 -3.58331,0.89782 -7.47119,2.51166 -3.88787,1.61386 -14.10251,6.50014 -22.69945,10.85795 -8.59704,4.35782 -20.12298,10.92573 -25.61319,14.59581 -5.49032,3.67007 -13.23669,9.33266 -17.215,12.58486 -3.97841,3.25221 -11.51626,10.15207 -16.75149,15.33151 -5.23523,5.17945 -12.62304,13.41948 -16.41661,18.31119 -3.79357,4.8917 -8.91576,12.19 -11.38342,16.21847 -2.46774,4.02846 -6.29218,11.15981 -8.49825,15.84857 -2.20609,4.68875 -4.01227,8.85297 -4.01227,9.25368 0,0.007 8.9e-4,0.0151 0.005,0.0204 6.1e-4,8.9e-4 0.004,0.006 0.005,0.006 l 0.002,0.002 c 8.9e-4,7e-4 0.006,0.004 0.006,0.005 0.27186,0.12511 3.52263,-2.58322 7.45487,-6.22703 4.10877,-3.80743 12.12063,-10.04002 17.80509,-13.85192 5.68446,-3.81188 10.67449,-7.52489 11.08733,-8.25024 0.41285,-0.72537 3.80727,-4.93054 7.54471,-9.34361 3.73743,-4.41306 11.67612,-12.2147 17.6397,-17.33839 5.9636,-5.12371 15.40295,-12.35657 20.97815,-16.07134 5.57511,-3.71478 15.18763,-9.42753 21.35998,-12.69724 6.17236,-3.26971 11.48362,-5.6832 11.80405,-5.36256 0.32031,0.32065 0.98134,4.02255 1.4681,8.22777 0.48675,4.20522 0.906,15.03769 0.93109,24.07224 0.0252,9.03456 -0.66915,21.89132 -1.54365,28.5683 -0.87451,6.677 -2.49243,16.00011 -3.59369,20.71862 -1.10126,4.71848 -3.49683,12.817 -5.32519,17.99645 -1.82837,5.17944 -5.44736,13.6549 -8.04089,18.83435 -2.59362,5.17945 -7.4896,13.47918 -10.8811,18.44402 -3.39151,4.96482 -9.32984,12.58982 -13.1966,16.94397 -3.86676,4.35413 -10.56055,10.85141 -14.87296,14.44049 -4.31243,3.58907 -10.60418,8.31656 -13.98273,10.5044 -3.37864,2.18784 -6.55493,3.72251 -7.05873,3.41087 -0.50379,-0.31166 -0.64901,-2.53864 -0.32262,-4.94975 0.32649,-2.41112 1.09795,-6.73794 1.71517,-9.6154 0.61723,-2.87748 2.52425,-8.39428 4.23688,-12.25786 2.13426,-4.81505 2.90291,-7.86787 2.44208,-9.70534 -0.36968,-1.47438 -1.6028,-3.60903 -2.73815,-4.74538 -1.33597,-1.33714 -3.47391,-2.06614 -6.06231,-2.06614 -2.81588,0 -4.63359,0.69675 -6.14195,2.3543 -1.1784,1.29486 -2.72077,3.47256 -3.42624,4.83938 -0.70556,1.36683 -2.40643,5.78965 -3.7795,9.82999 -1.37298,4.04036 -2.99006,11.32512 -3.59369,16.18782 -0.76317,6.14368 -0.76595,11.22988 -0.0105,16.66808 0.59809,4.30431 2.29565,11.43962 3.77337,15.85675 1.47772,4.41714 4.11207,10.85672 5.85199,14.3097 1.74002,3.45296 4.80812,9.00296 6.81985,12.33348 3.03919,5.03163 4.03924,5.95504 5.9112,5.46677 1.23916,-0.32318 10.24977,-4.58704 20.02461,-9.47643 9.77483,-4.88941 22.22382,-12.0595 27.66322,-15.93236 5.43952,-3.87288 14.79394,-11.749 20.78826,-17.50394 5.99432,-5.75494 13.8358,-14.2304 17.42531,-18.83436 3.5895,-4.60395 8.70697,-11.97168 11.37117,-16.37174 2.6643,-4.40007 7.16549,-12.87553 10.00311,-18.83435 2.83773,-5.95883 6.84061,-15.98157 8.89438,-22.27383 2.05365,-6.29227 4.68317,-16.10549 5.84382,-21.80585 1.16064,-5.70034 2.81135,-15.14883 3.66924,-20.99654 0.85789,-5.84769 1.84451,-19.57742 2.19296,-30.51182 0.38191,-11.98528 0.1401,-26.3217 -0.61052,-36.09917 -0.68476,-8.92016 -2.84624,-25.63566 -4.80246,-37.14553 -1.95623,-11.5099 -4.8833,-26.33842 -6.5054,-32.95195 -2.1239,-8.65942 -3.42129,-12.11588 -4.63504,-12.34983 z m -76.92739,125.05554 -27.57135,18.3357 c -15.16416,10.08487 -31.33492,21.58479 -35.93484,25.55595 -4.59991,3.97115 -10.78139,10.43303 -13.73767,14.35875 -2.95629,3.92572 -7.04296,10.5573 -9.0802,14.73683 -2.03724,4.1795 -4.47272,10.36707 -5.413,13.75177 -0.94036,3.38469 -1.97532,11.94135 -2.30118,19.01419 -0.35743,7.75897 -0.092,16.53809 0.67177,22.13283 0.69638,5.09998 2.15539,12.72596 3.24045,16.94805 1.08506,4.22209 1.63839,7.99272 1.2292,8.37696 -0.40918,0.38422 -4.52758,1.46029 -9.15164,2.39108 -4.62408,0.93079 -13.79862,2.35746 -20.38602,3.17176 -10.68415,1.3207 -12.23028,1.77709 -14.32983,4.22014 -1.29457,1.50629 -2.35428,4.0605 -2.35428,5.67728 0,1.61679 1.02757,4.24574 2.28281,5.84283 l 2.28281,2.90403 10.52379,-0.62535 c 5.78838,-0.34387 15.46347,-1.55188 21.50087,-2.68538 6.0374,-1.13348 12.38843,-2.35717 14.1134,-2.7201 3.11331,-0.655 3.18373,-0.56514 9.61516,12.23742 3.56347,7.09346 9.11959,16.88999 12.34716,21.7711 3.22759,4.8811 6.83347,9.69961 8.01231,10.70673 1.17873,1.00711 3.62019,1.81468 5.42524,1.79637 1.80494,-0.0183 4.02911,-0.60687 4.94131,-1.30794 0.91236,-0.70106 2.20608,-2.30302 2.87496,-3.56006 0.66897,-1.25703 1.2149,-3.08172 1.2149,-4.05666 0,-0.97494 -2.97254,-6.53919 -6.60747,-12.36414 -3.63499,-5.82496 -8.52248,-14.12166 -10.86071,-18.43788 -2.33821,-4.3162 -5.92999,-12.09297 -7.98166,-17.28117 -2.05156,-5.18819 -4.91189,-13.84634 -6.35429,-19.24105 -1.44249,-5.3947 -3.12684,-14.40722 -3.74479,-20.02784 -0.8075,-7.34387 -0.80071,-12.82379 0.0225,-19.47403 0.63008,-5.08976 2.26888,-12.4936 3.64269,-16.45349 1.37391,-3.95988 4.14073,-9.67547 6.14807,-12.70133 2.00733,-3.02586 5.95342,-7.80814 8.76983,-10.62703 2.8164,-2.81887 8.61022,-7.72861 12.87398,-10.91108 4.26381,-3.18247 13.6315,-9.78513 20.81889,-14.67142 7.18737,-4.88632 13.65035,-9.23399 14.3625,-9.66242 0.81972,-0.49318 1.11519,-0.28007 0.80448,0.58244 -0.27003,0.74925 -2.16131,7.695 -4.20419,15.43576 -2.04289,7.74073 -3.87915,14.23986 -4.07965,14.44048 -0.20041,0.20061 -3.18467,-1.00379 -6.63199,-2.67515 l -6.26854,-3.03892 -7.70601,5.61597 c -4.23893,3.08914 -7.83826,6.00382 -7.998,6.47635 -0.15985,0.47252 5.13268,3.36394 11.76117,6.42527 6.62838,3.06133 12.05109,6.00939 12.05109,6.55196 0,0.54258 -0.74843,3.56696 -1.66412,6.71955 -0.9157,3.15259 -1.44195,5.95685 -1.16794,6.23112 0.27411,0.27426 3.86262,2.11142 7.97349,4.08322 l 7.47528,3.58459 0.99439,-2.61793 c 0.54687,-1.43968 2.83568,-9.07984 5.0863,-16.97871 2.25072,-7.89888 5.54473,-20.48196 7.32008,-27.96338 1.77547,-7.48143 4.59942,-20.09681 6.27672,-28.03286 l 3.05053,-14.42823 -2.25217,-1.44282 c -1.23842,-0.79372 -4.42883,-2.48866 -7.08936,-3.76647 z" />
    <text
       xml:space="preserve"
       style="font-style:normal;font-variant:normal;font-weight:normal;font-stretch:normal;font-size:92.7925px;font-family:Montserrat;-inkscape-font-specification:'Montserrat, @wght=600';font-variant-ligatures:normal;font-variant-caps:normal;font-variant-numeric:normal;font-variant-east-asian:normal;font-variation-settings:'wght' 600;writing-mode:lr-tb;direction:ltr;fill:#ffffff;fill-opacity:1;stroke-width:0.98447"
       x="296.68378"
       y="671.36084"
       id="text33"
       transform="scale(1.0180537,0.98226646)"><tspan
         sodipodi:role="line"
         id="tspan33"
         x="296.68378"
         y="671.36084"
         style="font-style:normal;font-variant:normal;font-weight:normal;font-stretch:normal;font-size:92.7925px;font-family:Montserrat;-inkscape-font-specification:'Montserrat, @wght=600';font-variant-ligatures:normal;font-variant-caps:normal;font-variant-numeric:normal;font-variant-east-asian:normal;font-variation-settings:'wght' 600;fill:#ffffff;fill-opacity:1;stroke-width:0.98447">ARCELIS</tspan></text>
    <text
       xml:space="preserve"
       style="font-style:normal;font-variant:normal;font-weight:normal;font-stretch:normal;font-size:28.3532px;font-family:Montserrat;-inkscape-font-specification:'Montserrat, @wght=500';font-variant-ligatures:normal;font-variant-caps:normal;font-variant-numeric:normal;font-variant-east-asian:normal;font-variation-settings:'wght' 500;writing-mode:lr-tb;direction:ltr;fill:#ffffff;fill-opacity:1;stroke-width:0.966588"
       x="301.61911"
       y="705.12793"
       id="text34"
       transform="scale(0.99956199,1.0004382)"><tspan
         sodipodi:role="line"
         id="tspan34"
         x="301.61911"
         y="705.12793"
         style="fill:#ffffff;stroke-width:0.966588">PERFORMANCE ENERGÉTICA</tspan></text>
  </g>
</svg>
