<?xml version="1.0" encoding="UTF-8" standalone="no"?>
<!-- Created with Inkscape (http://www.inkscape.org/) -->

<svg
   version="1.1"
   id="svg1"
   width="427.97894"
   height="501.6774"
   viewBox="0 0 427.97894 501.6774"
   sodipodi:docname="ARCELIS_preto_vertical.svg"
   inkscape:version="1.4.2 (f4327f4, 2025-05-13)"
   xmlns:inkscape="http://www.inkscape.org/namespaces/inkscape"
   xmlns:sodipodi="http://sodipodi.sourceforge.net/DTD/sodipodi-0.dtd"
   xmlns="http://www.w3.org/2000/svg"
   xmlns:svg="http://www.w3.org/2000/svg">
  <defs
     id="defs1">
    <rect
       x="174.07112"
       y="213.56625"
       width="152.12938"
       height="175.53391"
       id="rect32" />
  </defs>
  <sodipodi:namedview
     id="namedview1"
     pagecolor="#ffffff"
     bordercolor="#000000"
     borderopacity="0.25"
     inkscape:showpageshadow="2"
     inkscape:pageopacity="0.0"
     inkscape:pagecheckerboard="0"
     inkscape:deskcolor="#d1d1d1"
     inkscape:zoom="0.68362863"
     inkscape:cx="-310.84128"
     inkscape:cy="347.41085"
     inkscape:window-width="1920"
     inkscape:window-height="1057"
     inkscape:window-x="-8"
     inkscape:window-y="-8"
     inkscape:window-maximized="1"
     inkscape:current-layer="g1" />
  <g
     inkscape:groupmode="layer"
     inkscape:label="Image"
     id="g1"
     transform="translate(-291.84255,-214.53231)">
    <path
       id="path31"
       style="fill:#000000;stroke-width:1.03627"
       d="m 601.72554,223.31823 c -0.90371,-0.17993 -8.60683,2.29298 -17.11899,5.4967 -8.51226,3.20372 -20.3725,8.05286 -26.35527,10.77526 -5.98277,2.72236 -16.8407,8.12971 -24.12781,12.01616 -7.28711,3.88644 -16.91834,9.31653 -21.40271,12.06556 -4.48438,2.74903 -12.05177,7.7572 -16.81642,11.12921 -4.76465,3.37202 -13.4786,10.12333 -19.36435,15.00426 -5.88575,4.88092 -15.28765,13.80782 -20.89313,19.83624 -5.60547,6.02844 -12.75591,14.50831 -15.89079,18.84434 -3.13478,4.33604 -8.06235,11.95872 -10.95018,16.94076 -2.88794,4.98205 -6.90366,12.75615 -8.92376,17.27621 -2.02002,4.52005 -5.48265,13.91868 -7.69558,20.88578 -2.21295,6.9671 -4.96697,18.15875 -6.11904,24.86991 -1.53783,8.95944 -2.10153,16.82355 -2.12396,29.58872 -0.0192,11.12505 0.5784,21.42972 1.66015,28.61943 0.92969,6.1795 2.40894,13.7658 3.28646,16.85845 0.8776,3.09263 2.55015,6.6911 3.7164,7.995 1.39188,1.55617 3.30036,2.37072 5.5557,2.37072 2.28897,0 4.27125,-0.86382 5.93792,-2.58681 1.37588,-1.42242 2.49817,-3.67461 2.49817,-5.00485 -0.002,-1.33023 -1.00549,-7.39656 -2.23145,-13.48141 -1.85613,-9.21213 -2.23932,-14.67763 -2.28518,-32.66323 -0.0437,-16.90104 0.34863,-23.66277 1.80148,-31.08276 1.02121,-5.21558 3.47223,-14.69846 5.44821,-21.07306 1.97597,-6.37459 6.31302,-17.04282 9.63838,-23.70718 3.32537,-6.66435 9.12656,-16.6089 12.891,-22.0979 3.76443,-5.48903 12.34716,-15.71519 19.07372,-22.72556 6.72657,-7.01038 17.27505,-16.6073 23.44107,-21.32618 6.16601,-4.71888 18.09038,-12.82144 26.49858,-18.00471 8.40822,-5.18326 20.79121,-12.2462 27.51778,-15.69572 6.72657,-3.4495 17.96299,-8.65595 24.96983,-11.5696 7.00684,-2.91366 13.71853,-5.60122 14.91342,-5.97413 1.45875,-0.45529 2.36718,-0.1529 2.7669,0.924 0.32747,0.8821 2.20786,11.68451 4.17823,24.00354 1.97048,12.319 4.04463,28.08807 4.61018,35.04217 0.56544,6.95412 1.02316,18.33357 1.02316,25.28768 -0.004,6.95411 -0.43115,17.9424 -0.94951,24.41923 -0.51835,6.47681 -1.69452,16.43383 -2.61363,22.1267 -0.91919,5.69288 -2.8159,15.08764 -4.21604,20.87755 -1.40014,5.78993 -4.14169,14.79866 -6.09118,20.01941 -1.94938,5.22075 -5.8067,13.93589 -8.57143,19.36704 -2.76483,5.43117 -7.63721,13.62369 -10.82874,18.20639 -3.19167,4.5827 -9.18008,12.09109 -13.30704,16.68352 -4.12685,4.59244 -11.03596,11.29259 -15.35532,14.88902 -4.31928,3.59642 -11.06523,8.6778 -14.98907,11.29178 -3.92383,2.61398 -10.80327,6.79676 -15.28765,9.29561 -4.48438,2.49884 -8.69213,4.55085 -9.35174,4.56034 -0.65961,0.01 -2.38525,-2.66154 -3.83585,-5.93709 -1.42782,-3.22436 -2.4835,-5.96378 -2.37475,-6.15935 l 0.002,-0.002 v -0.002 l 0.002,-0.002 0.002,-0.002 c 0.14818,-0.11609 4.6257,-3.19816 9.95089,-6.84874 5.3252,-3.6506 13.43079,-9.87662 18.01077,-13.83538 4.58008,-3.95873 11.39003,-10.69315 15.13438,-14.96722 3.74435,-4.27407 9.75087,-11.98772 13.34683,-17.14037 3.59586,-5.15264 9.47509,-15.53151 13.06616,-23.06512 3.59107,-7.53362 8.37875,-19.65198 10.63766,-26.92988 2.2589,-7.27791 5.15541,-19.1315 6.43754,-26.34132 2.04201,-11.48248 2.32873,-16.50757 2.33892,-40.5039 0.007,-23.45651 -0.33648,-29.7429 -2.38869,-43.72659 -1.3182,-8.9824 -2.57188,-16.52498 -2.78682,-16.75967 -0.21495,-0.23469 -3.4933,0.90407 -7.28352,2.52918 -3.79022,1.62511 -13.74828,6.54548 -22.12928,10.93369 -8.38109,4.38822 -19.61752,11.00196 -24.96982,14.69764 -5.35241,3.69568 -12.9042,9.39777 -16.78258,12.67265 -3.87848,3.27491 -11.22699,10.2229 -16.33072,15.43848 -5.10373,5.21558 -12.30596,13.5131 -16.00424,18.43893 -3.69829,4.92582 -8.69182,12.27505 -11.09749,16.33162 -2.40576,4.05657 -6.13413,11.23766 -8.28479,15.95914 -2.15067,4.72146 -3.91149,8.91472 -3.91149,9.31823 0,0.007 8.7e-4,0.0152 0.005,0.0205 6e-4,8.9e-4 0.004,0.006 0.005,0.006 l 0.002,0.002 c 8.6e-4,7.1e-4 0.006,0.004 0.006,0.005 0.26503,0.12598 3.43415,-2.60125 7.26761,-6.27048 4.00556,-3.83399 11.81618,-10.11006 17.35785,-13.94856 5.54168,-3.83847 10.40637,-7.57738 10.80883,-8.3078 0.40248,-0.73042 3.71165,-4.96493 7.3552,-9.40879 3.64356,-4.44385 11.38283,-12.29991 17.19662,-17.45935 5.8138,-5.15945 15.01605,-12.44277 20.45121,-16.18346 5.43507,-3.74069 14.80613,-9.4933 20.82345,-12.78582 6.01732,-3.29252 11.19516,-5.72284 11.50754,-5.39997 0.31227,0.32288 0.9567,4.05061 1.43122,8.28517 0.47453,4.23456 0.88325,15.1426 0.90771,24.24018 0.0246,9.09759 -0.65234,22.04404 -1.50488,28.76761 -0.85254,6.72357 -2.42982,16.11173 -3.50342,20.86315 -1.0736,4.7514 -3.40899,12.90642 -5.19143,18.122 -1.78244,5.21558 -5.31053,13.75017 -7.83891,18.96575 -2.52847,5.21559 -7.30147,13.57321 -10.60778,18.57269 -3.30632,4.99946 -9.09549,12.67766 -12.86512,17.06218 -3.76963,4.38451 -10.29528,10.92712 -14.49938,14.54123 -4.2041,3.61412 -10.33782,8.37458 -13.63149,10.57769 -3.29378,2.2031 -6.39029,3.74847 -6.88143,3.43466 -0.49114,-0.31383 -0.63271,-2.55635 -0.31452,-4.98428 0.31829,-2.42794 1.07037,-6.78495 1.67209,-9.68248 0.60172,-2.89755 2.46084,-8.45284 4.13045,-12.34338 2.08065,-4.84864 2.83,-7.92275 2.38074,-9.77304 -0.36039,-1.48467 -1.56254,-3.63421 -2.66937,-4.77849 -1.30241,-1.34647 -3.38665,-2.08055 -5.91003,-2.08055 -2.74515,0 -4.5172,0.70161 -5.98767,2.37072 -1.1488,1.3039 -2.65244,3.49679 -3.34018,4.87314 -0.68784,1.37637 -2.34598,5.83004 -3.68457,9.89857 -1.33849,4.06855 -2.91495,11.40413 -3.50342,16.30076 -0.744,6.18653 -0.74671,11.30822 -0.0103,16.78436 0.58307,4.33433 2.23798,11.51942 3.67858,15.96737 1.4406,4.44795 4.00879,10.93246 5.705,14.40953 1.69632,3.47705 4.68734,9.06577 6.64854,12.41952 2.96286,5.06674 3.93779,5.99659 5.76273,5.50492 1.20803,-0.32544 9.99231,-4.61904 19.52161,-9.54255 9.5293,-4.92352 21.6656,-12.14363 26.96837,-16.04351 5.30288,-3.8999 14.42233,-11.83096 20.26608,-17.62605 5.84375,-5.7951 13.48827,-14.32969 16.98762,-18.96576 3.49933,-4.63607 8.48826,-12.0552 11.08554,-16.48595 2.59737,-4.43078 6.98549,-12.96537 9.75184,-18.96575 2.76645,-6.0004 6.66879,-16.09306 8.67096,-22.42923 2.00207,-6.33616 4.56554,-16.21784 5.69703,-21.95797 1.13149,-5.74011 2.74074,-15.25452 3.57708,-21.14302 0.83634,-5.88849 1.79818,-19.714 2.13788,-30.72468 0.37231,-12.06889 0.13658,-26.50533 -0.59519,-36.35102 -0.66756,-8.98239 -2.77475,-25.8145 -4.68183,-37.40467 -1.90709,-11.59019 -4.76064,-26.52217 -6.34199,-33.18184 -2.07056,-8.71982 -3.33535,-12.2004 -4.51862,-12.43599 z m -74.99509,125.92798 -26.87879,18.46362 c -14.78326,10.15522 -30.54783,21.73538 -35.03221,25.73424 -4.48437,3.99885 -10.51058,10.50582 -13.3926,14.45892 -2.88204,3.95311 -6.86605,10.63096 -8.85212,14.83964 -1.98606,4.20866 -4.36037,10.43939 -5.27703,13.84771 -0.91674,3.4083 -1.92571,12.02465 -2.24338,19.14684 -0.34845,7.8131 -0.0897,16.65347 0.6549,22.28723 0.67888,5.13556 2.10125,12.81474 3.15905,17.06629 1.05781,4.25155 1.59723,8.04848 1.19833,8.4354 -0.3989,0.3869 -4.41385,1.47048 -8.92177,2.40776 -4.50792,0.93728 -13.45202,2.37391 -19.87395,3.19389 -10.41577,1.32992 -11.92307,1.7895 -13.96989,4.24959 -1.26204,1.51679 -2.29513,4.08883 -2.29513,5.71688 0,1.62807 1.00175,4.27536 2.22546,5.88359 l 2.22548,2.9243 10.25944,-0.62972 c 5.64298,-0.34627 15.07505,-1.56271 20.9608,-2.70411 5.88575,-1.14139 12.07724,-2.37362 13.75889,-2.73908 3.0351,-0.65957 3.10376,-0.56909 9.37364,12.3228 3.47396,7.14294 8.89052,17.00782 12.03702,21.92298 3.14651,4.91515 6.66182,9.76728 7.81105,10.78142 1.14912,1.01414 3.52925,1.82734 5.28896,1.80891 1.7596,-0.0184 3.92791,-0.61111 4.81719,-1.31707 0.88945,-0.70595 2.15067,-2.31909 2.80275,-3.5849 0.65217,-1.2658 1.18438,-3.10322 1.18438,-4.08496 0,-0.98174 -2.89787,-6.58481 -6.4415,-12.45039 -3.54368,-5.8656 -8.30841,-14.22019 -10.5879,-18.56652 -2.27948,-4.34631 -5.78104,-12.17733 -7.78117,-17.40172 -2.00003,-5.22439 -4.78852,-13.94294 -6.19468,-19.37529 -1.40626,-5.43234 -3.0483,-14.50773 -3.65073,-20.16756 -0.78721,-7.3951 -0.78059,-12.91325 0.022,-19.60989 0.61425,-5.12527 2.21188,-12.58076 3.55118,-16.56828 1.33941,-3.9875 4.03673,-9.74296 5.99365,-12.78994 1.95691,-3.04697 5.80387,-7.86261 8.54954,-10.70116 2.74565,-2.83855 8.39394,-7.78254 12.5506,-10.98721 4.15671,-3.20467 13.2891,-9.85339 20.29595,-14.77377 7.00684,-4.92041 13.30747,-9.29841 14.00173,-9.72983 0.79914,-0.49662 1.08719,-0.28202 0.78428,0.5865 -0.26325,0.75448 -2.10702,7.74869 -4.09859,15.54345 -1.99157,7.79474 -3.7817,14.33921 -3.97718,14.54122 -0.19537,0.20201 -3.10466,-1.01079 -6.4654,-2.69381 l -6.11108,-3.06012 -7.51244,5.65515 c -4.13246,3.11068 -7.64138,6.04571 -7.7971,6.52153 -0.15584,0.47581 5.00375,3.38741 11.46574,6.47009 6.46188,3.08269 11.74839,6.05132 11.74839,6.59768 0,0.54636 -0.72963,3.59184 -1.62233,6.76643 -0.8927,3.17458 -1.40573,5.99841 -1.1386,6.27458 0.26723,0.27618 3.7656,2.12615 7.77321,4.11172 l 7.28751,3.60959 0.96941,-2.6362 c 0.53313,-1.44972 2.76446,-9.14319 4.95854,-17.09716 2.19418,-7.95398 5.40545,-20.62485 7.13621,-28.15846 1.73087,-7.53363 4.48389,-20.23701 6.11906,-28.22843 l 2.9739,-14.52888 -2.19559,-1.45289 c -1.20732,-0.79926 -4.31759,-2.50602 -6.91129,-3.79275 z" />
    <text
       xml:space="preserve"
       style="font-style:normal;font-variant:normal;font-weight:normal;font-stretch:normal;font-size:91.9387px;font-family:Montserrat;-inkscape-font-specification:'Montserrat, @wght=600';font-variant-ligatures:normal;font-variant-caps:normal;font-variant-numeric:normal;font-variant-east-asian:normal;font-variation-settings:'wght' 600;writing-mode:lr-tb;direction:ltr;fill:#000000;stroke-width:0.975412"
       x="304.54712"
       y="666.216"
       id="text33"
       transform="scale(1.0016982,0.99830466)"><tspan
         sodipodi:role="line"
         id="tspan33"
         x="304.54712"
         y="666.216"
         style="font-style:normal;font-variant:normal;font-weight:normal;font-stretch:normal;font-size:91.9387px;font-family:Montserrat;-inkscape-font-specification:'Montserrat, @wght=600';font-variant-ligatures:normal;font-variant-caps:normal;font-variant-numeric:normal;font-variant-east-asian:normal;font-variation-settings:'wght' 600;stroke-width:0.975412">ARCELIS</tspan></text>
    <text
       xml:space="preserve"
       style="font-style:normal;font-variant:normal;font-weight:normal;font-stretch:normal;font-size:28.0923px;font-family:Montserrat;-inkscape-font-specification:'Montserrat, @wght=500';font-variant-ligatures:normal;font-variant-caps:normal;font-variant-numeric:normal;font-variant-east-asian:normal;font-variation-settings:'wght' 500;writing-mode:lr-tb;direction:ltr;fill:#000000;stroke-width:0.957694"
       x="308.86746"
       y="691.02179"
       id="text34"
       transform="scale(0.9835036,1.0167731)"><tspan
         sodipodi:role="line"
         id="tspan34"
         x="308.86746"
         y="691.02179"
         style="stroke-width:0.957694">PERFORMANCE ENERGÉTICA</tspan></text>
  </g>
</svg>
