<?xml version="1.0" encoding="UTF-8" standalone="no"?>
<!-- Created with Inkscape (http://www.inkscape.org/) -->

<svg
   version="1.1"
   id="svg1"
   width="750.27393"
   height="224.528"
   viewBox="0 0 750.27393 224.528"
   sodipodi:docname="ARCELIS_preto_horizontal.svg"
   inkscape:version="1.4.2 (f4327f4, 2025-05-13)"
   xmlns:inkscape="http://www.inkscape.org/namespaces/inkscape"
   xmlns:sodipodi="http://sodipodi.sourceforge.net/DTD/sodipodi-0.dtd"
   xmlns="http://www.w3.org/2000/svg"
   xmlns:svg="http://www.w3.org/2000/svg">
  <defs
     id="defs1">
    <rect
       x="174.07112"
       y="213.56625"
       width="152.12938"
       height="175.53391"
       id="rect32" />
  </defs>
  <sodipodi:namedview
     id="namedview1"
     pagecolor="#ffffff"
     bordercolor="#000000"
     borderopacity="0.25"
     inkscape:showpageshadow="2"
     inkscape:pageopacity="0.0"
     inkscape:pagecheckerboard="0"
     inkscape:deskcolor="#d1d1d1"
     inkscape:zoom="0.48339844"
     inkscape:cx="58.957575"
     inkscape:cy="-38.270707"
     inkscape:window-width="1920"
     inkscape:window-height="1057"
     inkscape:window-x="-8"
     inkscape:window-y="-8"
     inkscape:window-maximized="1"
     inkscape:current-layer="layer1"
     showgrid="false" />
  <g
     inkscape:groupmode="layer"
     inkscape:label="Image"
     id="g1"
     transform="translate(-124.67544,-398.45388)">
    <path
       id="path31"
       style="fill:#000000;fill-opacity:1;stroke-width:0.685017"
       d="m 263.61715,398.45988 c -0.6074,-0.11698 -5.78488,1.49074 -11.50612,3.57359 -5.72132,2.08285 -13.69289,5.23543 -17.71407,7.00535 -4.02118,1.76991 -11.31908,5.2854 -16.21693,7.81212 -4.89786,2.52671 -11.37126,6.05699 -14.38533,7.84423 -3.01406,1.78723 -8.1003,5.04321 -11.30275,7.23547 -3.20245,2.19226 -9.05932,6.58152 -13.01529,9.75477 -3.95596,3.17326 -10.27523,8.97694 -14.04281,12.89622 -3.76758,3.91929 -8.57358,9.43234 -10.68062,12.25134 -2.10697,2.819 -5.41892,7.77477 -7.3599,11.01376 -1.94106,3.239 -4.64013,8.29321 -5.9979,11.23185 -1.3577,2.93863 -3.68502,9.049 -5.1724,13.57855 -1.48738,4.52954 -3.33843,11.80561 -4.11276,16.16877 -1.03362,5.82483 -1.4125,10.93755 -1.42757,19.23662 -0.0129,7.23278 0.38876,13.93219 1.11583,18.60646 0.62487,4.0175 1.61911,8.94962 2.20891,10.96025 0.58986,2.01062 1.71403,4.35011 2.49789,5.19782 0.93553,1.01172 2.21826,1.54128 3.73413,1.54128 1.53848,0 2.87082,-0.56159 3.99103,-1.68177 0.92477,-0.92476 1.67909,-2.38899 1.67909,-3.25382 -0.001,-0.86483 -0.67581,-4.80875 -1.49981,-8.76472 -1.24756,-5.98911 -1.50511,-9.54243 -1.53593,-21.23547 -0.0294,-10.98794 0.23432,-15.38397 1.21082,-20.20795 0.68638,-3.39083 2.33378,-9.55596 3.66188,-13.70031 1.32811,-4.14434 4.24315,-11.08012 6.47821,-15.41284 2.23507,-4.33272 6.1342,-10.798 8.66438,-14.36659 2.53017,-3.5686 8.29885,-10.21698 12.81995,-14.77465 4.5211,-4.55769 11.61101,-10.79697 15.75535,-13.86487 4.14434,-3.06791 12.15902,-8.33566 17.81039,-11.70547 5.65138,-3.36982 13.97432,-7.96167 18.49542,-10.20432 4.5211,-2.24264 12.0734,-5.62753 16.78288,-7.52179 4.70948,-1.89427 9.22058,-3.64154 10.02369,-3.88398 0.98047,-0.296 1.59105,-0.0994 1.85971,0.60072 0.2201,0.57348 1.48396,7.5965 2.8083,15.60551 1.32441,8.009 2.71851,18.26101 3.09862,22.7821 0.38005,4.52111 0.6877,11.91927 0.6877,16.44037 -0.003,4.52111 -0.28979,11.66497 -0.63819,15.87577 -0.3484,4.2108 -1.13894,10.68419 -1.75669,14.38532 -0.61782,3.70113 -1.89264,9.80898 -2.83372,13.57319 -0.94107,3.76424 -2.78373,9.62112 -4.09404,13.0153 -1.31022,3.39419 -3.90283,9.06019 -5.76108,12.59117 -1.85831,3.53099 -5.13316,8.85722 -7.27828,11.83659 -2.1452,2.97937 -6.17017,7.86082 -8.944,10.84652 -2.77377,2.9857 -7.41756,7.34169 -10.32072,9.67985 -2.9031,2.33816 -7.43723,5.64174 -10.07455,7.34117 -2.63731,1.69943 -7.26116,4.4188 -10.27523,6.04339 -3.01406,1.62458 -5.8422,2.95866 -6.28554,2.96483 -0.44335,0.006 -1.6032,-1.73036 -2.57818,-3.8599 -0.95967,-2.09627 -1.66922,-3.87726 -1.59613,-4.0044 l 0.001,-0.001 v -10e-4 l 0.001,-10e-4 0.001,-10e-4 c 0.0996,-0.0755 3.10906,-2.07923 6.68826,-4.45259 3.57921,-2.37338 9.02718,-6.42113 12.10551,-8.99485 3.07839,-2.57371 7.65553,-6.95198 10.17221,-9.7307 2.51668,-2.77871 6.55382,-7.79362 8.97076,-11.14353 2.41687,-3.34991 6.36845,-10.09756 8.7821,-14.99542 2.41366,-4.89785 5.63158,-12.77641 7.14985,-17.50802 1.51827,-4.73161 3.46509,-12.43804 4.32684,-17.12538 1.37249,-7.46515 1.5652,-10.73213 1.57205,-26.33296 0.004,-15.24986 -0.22615,-19.33686 -1.6055,-28.42813 -0.886,-5.83976 -1.72862,-10.74344 -1.87309,-10.89603 -0.14448,-0.15257 -2.34794,0.58777 -4.89545,1.64431 -2.5475,1.05654 -9.24058,4.25544 -14.87367,7.10836 -5.63315,2.85293 -13.18544,7.15274 -16.78287,9.55543 -3.59749,2.40269 -8.67325,6.10981 -11.28001,8.23892 -2.60682,2.12913 -7.54595,6.64626 -10.9763,10.03708 -3.43035,3.39082 -8.27116,8.78532 -10.75687,11.98777 -2.48572,3.20244 -5.842,7.98042 -7.45891,10.61774 -1.61698,2.63731 -4.12291,7.30598 -5.56843,10.37557 -1.44552,3.06958 -2.62901,5.79577 -2.62901,6.0581 0,0.004 5.8e-4,0.01 0.003,0.0134 3.9e-4,5.8e-4 0.003,0.004 0.003,0.004 l 0.001,10e-4 c 5.8e-4,4.6e-4 0.004,0.003 0.004,0.003 0.17813,0.0819 2.30818,-1.69116 4.88475,-4.07665 2.69224,-2.4926 7.94196,-6.57289 11.66666,-9.06843 3.72471,-2.49552 6.9944,-4.92631 7.2649,-5.40118 0.27052,-0.47487 2.4947,-3.22787 4.94363,-6.11697 2.44892,-2.8891 7.65069,-7.99659 11.55829,-11.35092 3.90761,-3.35433 10.09268,-8.08946 13.74579,-10.52141 3.65306,-2.43195 9.95159,-6.17192 13.99599,-8.3125 4.0444,-2.14057 7.52456,-3.72061 7.73452,-3.51069 0.20988,0.20991 0.64302,2.63343 0.96196,5.38646 0.31894,2.75303 0.59365,9.84472 0.61009,15.75936 0.0165,5.91465 -0.43845,14.33158 -1.01146,18.70279 -0.57302,4.37123 -1.63315,10.47478 -2.35474,13.56384 -0.7216,3.08905 -2.29128,8.3909 -3.4893,11.78173 -1.19802,3.39082 -3.56935,8.93945 -5.26873,12.33027 -1.69946,3.39083 -4.90752,8.82441 -7.12977,12.07474 -2.22227,3.25031 -6.11332,8.24217 -8.64699,11.0927 -2.53366,2.85051 -6.91973,7.10409 -9.74541,9.45374 -2.82569,2.34966 -6.94832,5.4446 -9.16208,6.87692 -2.21383,1.4323 -4.29508,2.437 -4.62519,2.23298 -0.33011,-0.20403 -0.42526,-1.66196 -0.2114,-3.24044 0.21393,-1.57849 0.71943,-4.41113 1.12386,-6.29491 0.40443,-1.8838 1.65399,-5.49548 2.77618,-8.02485 1.39846,-3.15227 1.90212,-5.15085 1.60016,-6.35378 -0.24223,-0.96524 -1.05022,-2.36273 -1.79416,-3.10666 -0.87538,-0.87539 -2.27625,-1.35264 -3.97228,-1.35264 -1.84509,0 -3.03613,0.45614 -4.02447,1.54128 -0.77214,0.84771 -1.78277,2.27339 -2.24502,3.1682 -0.46232,0.89482 -1.5768,3.79031 -2.4765,6.43539 -0.89963,2.6451 -1.95921,7.41421 -2.35474,10.59768 -0.50006,4.02207 -0.50188,7.35185 -0.007,10.91208 0.3919,2.8179 1.50421,7.48916 2.47248,10.38093 0.96826,2.89176 2.69441,7.10756 3.83447,9.36811 1.14014,2.26056 3.15049,5.89397 4.46866,8.07436 1.99142,3.29405 2.64669,3.89858 3.87328,3.57893 0.81195,-0.21158 6.7161,-3.003 13.12099,-6.20393 6.40489,-3.20095 14.56201,-7.89499 18.12614,-10.43043 3.56421,-2.53546 9.69363,-7.69171 13.62137,-11.45929 3.92774,-3.76759 9.06582,-9.31621 11.41782,-12.33028 2.35199,-3.01407 5.70519,-7.83749 7.45088,-10.71808 1.74577,-2.88059 4.69514,-8.42922 6.55447,-12.33027 1.85941,-3.90107 4.48227,-10.46264 5.82798,-14.582 1.34565,-4.11935 3.06862,-10.54377 3.82913,-14.27562 0.7605,-3.73184 1.84212,-9.91748 2.40424,-13.74579 0.56213,-3.82831 1.20861,-12.81674 1.43693,-19.97515 0.25024,-7.8464 0.0918,-17.23201 -0.40004,-23.63303 -0.44869,-5.83975 -1.86498,-16.78287 -3.14679,-24.31804 -1.2818,-7.53517 -3.19974,-17.24295 -4.26261,-21.57263 -1.39168,-5.66905 -2.24178,-7.9319 -3.03708,-8.08506 z m -50.40616,81.87003 -18.06594,12.00382 c -9.93621,6.60226 -20.532,14.1309 -23.54607,16.7307 -3.01406,2.59979 -7.06443,6.83019 -9.00152,9.40023 -1.93708,2.57005 -4.61484,6.91155 -5.94974,9.64775 -1.33488,2.73619 -2.93071,6.78701 -3.54682,9.00287 -0.61617,2.21585 -1.29432,7.81763 -1.50784,12.448 -0.2342,5.07957 -0.0603,10.82699 0.44018,14.48969 0.45629,3.3388 1.4123,8.33129 2.12328,11.09537 0.71098,2.76408 1.07354,5.23259 0.80543,5.48414 -0.26812,0.25154 -2.96667,0.95601 -5.99656,1.56536 -3.02989,0.60936 -9.04145,1.54336 -13.3578,2.07646 -7.00072,0.86462 -8.01381,1.16341 -9.38953,2.7628 -0.84825,0.98612 -1.54262,2.65828 -1.54262,3.71674 0,1.05846 0.6733,2.77956 1.49579,3.82512 l 1.4958,1.90118 6.89564,-0.4094 c 3.7928,-0.22512 10.13234,-1.01597 14.08831,-1.75803 3.95596,-0.74206 8.11743,-1.54317 9.2477,-1.78077 2.03998,-0.42881 2.08612,-0.36998 6.30028,8.01147 2.33493,4.64386 5.97555,11.05736 8.09039,14.25287 2.11486,3.1955 4.47758,6.35004 5.25001,7.00936 0.77235,0.65933 2.3721,1.18802 3.55485,1.17604 1.18268,-0.012 2.64005,-0.39731 3.23776,-0.85627 0.59782,-0.45897 1.44552,-1.50772 1.8838,-2.33067 0.43834,-0.82294 0.79606,-2.01751 0.79606,-2.65577 0,-0.63826 -1.94774,-4.281 -4.32951,-8.09442 -2.38179,-3.81342 -5.58429,-9.24502 -7.1164,-12.07072 -1.5321,-2.82568 -3.88559,-7.91689 -5.22993,-11.31345 -1.34427,-3.39655 -3.21849,-9.06477 -4.16361,-12.59652 -0.94518,-3.53175 -2.04884,-9.43197 -2.45374,-13.11162 -0.52911,-4.8078 -0.52466,-8.39534 0.0148,-12.74905 0.41285,-3.33211 1.48666,-8.17918 2.38684,-10.7716 0.90025,-2.59241 2.71319,-6.33423 4.02848,-8.31517 1.3153,-1.98094 3.90094,-5.11175 5.74638,-6.95719 1.84542,-1.84543 5.64178,-5.05969 8.43558,-7.14315 2.79384,-2.08347 8.93195,-6.40603 13.64144,-9.60493 4.70948,-3.19893 8.9443,-6.04521 9.41093,-6.32569 0.53712,-0.32287 0.73073,-0.18335 0.52714,0.3813 -0.17694,0.49052 -1.41619,5.03769 -2.75477,10.10532 -1.33859,5.06763 -2.54179,9.32241 -2.67317,9.45374 -0.13131,0.13134 -2.08673,-0.65714 -4.34556,-1.75133 l -4.10742,-1.98949 -5.04931,3.6766 c -2.77753,2.02236 -5.13597,3.93052 -5.24063,4.23987 -0.10475,0.30934 3.36314,2.20227 7.70642,4.20642 4.3432,2.00417 7.8964,3.93417 7.8964,4.28938 0,0.35521 -0.49041,2.33517 -1.09041,4.39908 -0.6,2.0639 -0.94483,3.89977 -0.76528,4.07932 0.17961,0.17955 2.53096,1.38228 5.22457,2.67316 l 4.89813,2.34672 0.65157,-1.71388 c 0.35833,-0.94251 1.85806,-5.94429 3.33276,-11.11544 1.47477,-5.17115 3.63315,-13.40891 4.79644,-18.30677 1.16336,-4.89786 3.01374,-13.15676 4.11278,-18.35225 l 1.99884,-9.44572 -1.47572,-0.94457 c -0.81147,-0.51963 -2.90197,-1.62925 -4.64526,-2.46579 z" />
  </g>
  <g
     inkscape:groupmode="layer"
     id="layer1"
     inkscape:label="ARCELIS PERFORMANCE ENERGETICA"
     transform="matrix(1.3433044,0,0,1.3433044,-169.08566,-768.38113)">
    <text
       xml:space="preserve"
       style="font-style:normal;font-variant:normal;font-weight:normal;font-stretch:normal;font-size:96px;font-family:Montserrat;-inkscape-font-specification:'Montserrat, @wght=600';font-variant-ligatures:normal;font-variant-caps:normal;font-variant-numeric:normal;font-variant-east-asian:normal;font-variation-settings:'wght' 600;writing-mode:lr-tb;direction:ltr;fill:#000000;fill-opacity:1;stroke-width:1.0185"
       x="257.92334"
       y="680.57727"
       id="text33"
       transform="scale(1.0184998,0.98183622)"><tspan
         sodipodi:role="line"
         id="tspan33"
         x="257.92334"
         y="680.57727"
         style="font-style:normal;font-variant:normal;font-weight:normal;font-stretch:normal;font-size:96px;font-family:Montserrat;-inkscape-font-specification:'Montserrat, @wght=600';font-variant-ligatures:normal;font-variant-caps:normal;font-variant-numeric:normal;font-variant-east-asian:normal;font-variation-settings:'wght' 600;fill:#000000;fill-opacity:1;stroke-width:1.0185">ARCELIS</tspan></text>
    <text
       xml:space="preserve"
       style="font-style:normal;font-variant:normal;font-weight:normal;font-stretch:normal;font-size:29.3333px;font-family:Montserrat;-inkscape-font-specification:'Montserrat, @wght=500';font-variant-ligatures:normal;font-variant-caps:normal;font-variant-numeric:normal;font-variant-east-asian:normal;font-variation-settings:'wght' 500;writing-mode:lr-tb;direction:ltr;fill:#000000;fill-opacity:1"
       x="253.558"
       y="715.76569"
       id="text34"><tspan
         sodipodi:role="line"
         id="tspan34"
         x="253.558"
         y="715.76569">PERFORMANCE ENERGÉTICA</tspan></text>
  </g>
</svg>
