<?xml version="1.0" encoding="UTF-8" standalone="no"?>
<!-- Created with Inkscape (http://www.inkscape.org/) -->

<svg
   version="1.1"
   id="svg1"
   width="750.27393"
   height="224.528"
   viewBox="0 0 750.27393 224.528"
   sodipodi:docname="ARCELIS_colorido_horizontal.svg"
   inkscape:version="1.4.2 (f4327f4, 2025-05-13)"
   xmlns:inkscape="http://www.inkscape.org/namespaces/inkscape"
   xmlns:sodipodi="http://sodipodi.sourceforge.net/DTD/sodipodi-0.dtd"
   xmlns="http://www.w3.org/2000/svg"
   xmlns:svg="http://www.w3.org/2000/svg">
  <defs
     id="defs1">
    <rect
       x="174.07112"
       y="213.56625"
       width="152.12938"
       height="175.53391"
       id="rect32" />
  </defs>
  <sodipodi:namedview
     id="namedview1"
     pagecolor="#ffffff"
     bordercolor="#000000"
     borderopacity="0.25"
     inkscape:showpageshadow="2"
     inkscape:pageopacity="0.0"
     inkscape:pagecheckerboard="0"
     inkscape:deskcolor="#d1d1d1"
     inkscape:zoom="0.48339844"
     inkscape:cx="358.91717"
     inkscape:cy="65.163636"
     inkscape:window-width="1920"
     inkscape:window-height="1009"
     inkscape:window-x="1912"
     inkscape:window-y="-8"
     inkscape:window-maximized="1"
     inkscape:current-layer="layer1" />
  <g
     inkscape:groupmode="layer"
     inkscape:label="Image"
     id="g1"
     transform="translate(-124.67544,-398.45388)">
    <path
       id="path31"
       style="fill:#06402b;fill-opacity:1;stroke-width:0.658828"
       d="m 269.74652,404.66567 c -0.58897,-0.11159 -5.60942,1.42206 -11.15714,3.40896 -5.54779,1.9869 -13.27759,4.99425 -17.17681,6.68263 -3.89922,1.68838 -10.97577,5.04192 -15.72507,7.45224 -4.74931,2.41031 -11.02638,5.77796 -13.94903,7.48286 -2.92265,1.7049 -7.85462,4.81089 -10.95994,6.90216 -3.10532,2.09126 -8.78456,6.27832 -12.62054,9.30539 -3.83598,3.02707 -9.96359,8.56339 -13.6169,12.30212 -3.65331,3.73874 -8.31355,8.99782 -10.35668,11.68695 -2.04307,2.68914 -5.25457,7.41661 -7.13668,10.50639 -1.88218,3.08978 -4.49939,7.91116 -5.81598,10.71442 -1.31652,2.80326 -3.57326,8.63214 -5.01552,12.95303 -1.44227,4.32087 -3.23718,11.26175 -3.98803,15.42391 -1.00227,5.5565 -1.36966,10.43369 -1.38427,18.35044 -0.0125,6.89958 0.37697,13.29037 1.08199,17.74931 0.60592,3.83242 1.57,8.53733 2.14191,10.45534 0.57197,1.91799 1.66205,4.14971 2.42213,4.95837 0.90716,0.96511 2.15098,1.47027 3.62088,1.47027 1.49182,0 2.78375,-0.53572 3.86998,-1.60429 0.89672,-0.88216 1.62817,-2.27894 1.62817,-3.10393 -9.7e-4,-0.82499 -0.65532,-4.58722 -1.45433,-8.36095 -1.20972,-5.71321 -1.45946,-9.10283 -1.48934,-20.2572 -0.0285,-10.48176 0.22721,-14.67527 1.17409,-19.27703 0.66557,-3.23462 2.263,-9.11574 3.55082,-13.06917 1.28783,-3.95342 4.11446,-10.56968 6.28173,-14.70281 2.16728,-4.13312 5.94815,-10.30056 8.40159,-13.70475 2.45343,-3.40421 8.04715,-9.74631 12.43113,-14.09402 4.38397,-4.34773 11.25885,-10.29959 15.27749,-13.22615 4.01865,-2.92658 11.79024,-7.95166 17.27021,-11.16623 5.47997,-3.21458 13.55048,-7.5949 17.93446,-9.73424 4.38398,-2.13932 11.70722,-5.36828 16.27386,-7.17528 4.56664,-1.807 8.94092,-3.47378 9.71968,-3.70505 0.95073,-0.28237 1.54279,-0.0948 1.8033,0.57304 0.21343,0.54707 1.43895,7.24655 2.72313,14.88661 1.28424,7.64004 2.63605,17.41977 3.00464,21.73259 0.36852,4.31283 0.66684,11.37017 0.66684,15.683 -0.003,4.31283 -0.281,11.12759 -0.61884,15.14441 -0.33783,4.01682 -1.10439,10.192 -1.70341,13.72263 -0.59908,3.53063 -1.83523,9.3571 -2.74777,12.94791 -0.91253,3.59083 -2.6993,9.17789 -3.96987,12.41571 -1.27048,3.23783 -3.78446,8.64281 -5.58635,12.01113 -1.80195,3.36833 -4.97747,8.44919 -7.05753,11.29131 -2.08014,2.84212 -5.98303,7.49869 -8.67273,10.34685 -2.68964,2.84815 -7.19259,7.00347 -10.0077,9.23392 -2.81505,2.23045 -7.21166,5.38184 -9.76899,7.00298 -2.55732,1.62114 -7.04093,4.21524 -9.96359,5.76499 -2.92264,1.54974 -5.665,2.82236 -6.0949,2.82825 -0.4299,0.006 -1.55457,-1.65065 -2.49998,-3.68209 -0.93057,-1.9997 -1.61859,-3.69864 -1.54772,-3.81993 l 9.7e-4,-9.5e-4 v -9.5e-4 l 9.7e-4,-9.6e-4 9.7e-4,-9.5e-4 c 0.0966,-0.072 3.01476,-1.98345 6.4854,-4.24747 3.47066,-2.26405 8.75339,-6.12533 11.73836,-8.58048 2.98502,-2.45515 7.42334,-6.63172 9.86369,-9.28243 2.44035,-2.65071 6.35504,-7.43459 8.69868,-10.63018 2.34357,-3.19559 6.1753,-9.63239 8.51574,-14.30462 2.34046,-4.67222 5.46078,-12.18783 6.933,-16.70147 1.47222,-4.51364 3.35999,-11.86505 4.19561,-16.33646 1.33086,-7.12125 1.51772,-10.23772 1.52437,-25.11986 0.004,-14.54734 -0.21929,-18.44606 -1.55681,-27.11852 -0.85913,-5.57074 -1.67619,-10.24852 -1.81628,-10.39408 -0.1401,-0.14554 -2.27673,0.56069 -4.74697,1.56856 -2.47024,1.00787 -8.96032,4.0594 -14.42256,6.7809 -5.4623,2.7215 -12.78553,6.82323 -16.27385,9.11523 -3.48838,2.29201 -8.41019,5.82835 -10.93789,7.85938 -2.52776,2.03104 -7.31708,6.34008 -10.64339,9.57469 -3.32631,3.23462 -8.0203,8.38061 -10.43062,11.43553 -2.41033,3.05491 -5.66481,7.61278 -7.23268,10.12861 -1.56794,2.51581 -3.99787,6.96941 -5.39955,9.89759 -1.40167,2.92817 -2.54927,5.52877 -2.54927,5.77902 0,0.004 5.6e-4,0.01 0.003,0.0128 3.8e-4,5.5e-4 0.003,0.004 0.003,0.004 l 9.7e-4,9.5e-4 c 5.6e-4,4.4e-4 0.004,0.003 0.004,0.003 0.17272,0.0781 2.23817,-1.61325 4.73659,-3.88885 2.61059,-2.37777 7.70109,-6.27009 11.31282,-8.65067 3.61174,-2.38055 6.78226,-4.69936 7.04456,-5.15236 0.26231,-0.45299 2.41903,-3.07917 4.79369,-5.83517 2.37464,-2.75601 7.41865,-7.62821 11.20773,-10.82802 3.78909,-3.1998 9.78657,-7.7168 13.32888,-10.03671 3.54227,-2.31992 9.64977,-5.8876 13.5715,-7.92957 3.92174,-2.04196 7.29634,-3.54921 7.49994,-3.34896 0.20351,0.20024 0.62351,2.51212 0.93278,5.13832 0.30927,2.62621 0.57564,9.3912 0.59159,15.03337 0.016,5.64217 -0.42516,13.67136 -0.98079,17.8412 -0.55564,4.16986 -1.58361,9.99223 -2.28332,12.93899 -0.69971,2.94674 -2.22179,8.00435 -3.38347,11.23897 -1.16168,3.23462 -3.46109,8.52763 -5.10893,11.76225 -1.64792,3.23462 -4.75868,8.41789 -6.91353,11.51849 -2.15487,3.10057 -5.9279,7.86247 -8.38473,10.58168 -2.45681,2.7192 -6.70985,6.77683 -9.44983,9.01823 -2.73999,2.24142 -6.73758,5.19378 -8.8842,6.56012 -2.14668,1.36632 -4.16481,2.32473 -4.48491,2.13011 -0.3201,-0.19463 -0.41236,-1.58539 -0.20499,-3.09116 0.20744,-1.50577 0.69761,-4.20792 1.08978,-6.00492 0.39216,-1.79702 1.60382,-5.24231 2.69198,-7.65516 1.35604,-3.00706 1.84443,-4.91357 1.55162,-6.06108 -0.23488,-0.92077 -1.01836,-2.25389 -1.73974,-2.96354 -0.84883,-0.83507 -2.20721,-1.29033 -3.8518,-1.29033 -1.78913,0 -2.94405,0.43512 -3.90241,1.47027 -0.74872,0.80866 -1.7287,2.16867 -2.17693,3.02225 -0.4483,0.8536 -1.52898,3.6157 -2.40139,6.13893 -0.87234,2.52325 -1.89979,7.07266 -2.28332,10.10947 -0.48489,3.83679 -0.48666,7.01317 -0.007,10.40939 0.38002,2.68809 1.45859,7.14416 2.39749,9.90271 0.9389,2.75854 2.61269,6.78013 3.71817,8.93654 1.10556,2.15643 3.05494,5.62245 4.33313,7.7024 1.93102,3.1423 2.56642,3.71898 3.75581,3.41406 0.78732,-0.20184 6.5124,-2.86466 12.72303,-5.91813 6.21063,-3.05349 14.12035,-7.53129 17.57638,-9.94993 3.45611,-2.41866 9.39963,-7.33737 13.20824,-10.93139 3.80861,-3.59403 8.79086,-8.88704 11.07152,-11.76226 2.28066,-2.87522 5.53215,-7.47643 7.2249,-10.22432 1.69282,-2.74789 4.55274,-8.04091 6.35567,-11.76225 1.80302,-3.72135 4.34633,-9.98065 5.65122,-13.91024 1.30484,-3.92958 2.97555,-10.05805 3.713,-13.61798 0.73743,-3.55992 1.78625,-9.46061 2.33132,-13.11256 0.54508,-3.65195 1.17195,-12.2263 1.39334,-19.05494 0.24265,-7.48494 0.089,-16.43818 -0.3879,-22.54432 -0.43508,-5.57073 -1.80842,-16.00972 -3.05135,-23.19777 -1.24292,-7.18804 -3.10269,-16.44861 -4.13333,-20.57883 -1.34947,-5.40789 -2.17379,-7.5665 -2.94496,-7.7126 z m -48.87735,78.09848 -17.51801,11.45084 c -9.63485,6.29811 -19.90927,13.47992 -22.83193,15.95996 -2.92264,2.48002 -6.85016,6.51554 -8.7285,8.96718 -1.87833,2.45166 -4.47488,6.59316 -5.76929,9.20331 -1.29439,2.61014 -2.84182,6.47435 -3.43924,8.58813 -0.59749,2.11377 -1.25507,7.45749 -1.46211,11.87455 -0.2271,4.84557 -0.0585,10.32822 0.42683,13.82219 0.44245,3.18499 1.36946,7.94748 2.05888,10.58423 0.68941,2.63675 1.04098,4.99154 0.781,5.2315 -0.25999,0.23995 -2.87669,0.91197 -5.81469,1.49325 -2.93799,0.58129 -8.76722,1.47226 -12.95266,1.9808 -6.78839,0.82479 -7.77075,1.10981 -9.10475,2.63552 -0.82252,0.9407 -1.49583,2.53582 -1.49583,3.54552 0,1.0097 0.65288,2.65152 1.45042,3.64891 l 1.45044,1.8136 6.68649,-0.39054 c 3.67777,-0.21475 9.82503,-0.96917 13.66102,-1.67704 3.83598,-0.70788 7.87123,-1.47208 8.96722,-1.69874 1.97811,-0.40905 2.02285,-0.35293 6.10919,7.6424 2.26412,4.42993 5.79432,10.54798 7.84502,13.59628 2.05071,3.04829 4.34177,6.05751 5.09078,6.68646 0.74892,0.62895 2.30015,1.13329 3.44703,1.12186 1.14681,-0.0114 2.55998,-0.37901 3.13956,-0.81682 0.57969,-0.43783 1.40168,-1.43827 1.82666,-2.22331 0.42505,-0.78503 0.77192,-1.92457 0.77192,-2.53342 0,-0.60886 -1.88867,-4.08379 -4.1982,-7.72153 -2.30955,-3.63775 -5.41492,-8.81913 -6.90056,-11.51466 -1.48563,-2.6955 -3.76774,-7.55217 -5.07131,-10.79226 -1.3035,-3.24008 -3.12087,-8.64718 -4.03733,-12.01623 -0.91651,-3.36905 -1.9867,-8.99747 -2.37932,-12.5076 -0.51306,-4.58632 -0.50874,-8.00859 0.0144,-12.16174 0.40033,-3.17861 1.44157,-7.80238 2.31445,-10.27538 0.87295,-2.47298 2.6309,-6.04243 3.9063,-7.93211 1.27541,-1.88968 3.78263,-4.87626 5.57209,-6.63669 1.78945,-1.76042 5.47067,-4.8266 8.17974,-6.81408 2.7091,-1.98749 8.66104,-6.11092 13.2277,-9.16246 4.56664,-3.05156 8.67302,-5.76672 9.12549,-6.03428 0.52083,-0.308 0.70857,-0.1749 0.51116,0.36374 -0.17158,0.46792 -1.37324,4.80561 -2.67122,9.63979 -1.29799,4.83418 -2.4647,8.89295 -2.5921,9.01823 -0.12732,0.12529 -2.02344,-0.62687 -4.21376,-1.67065 l -3.98284,-1.89784 -4.89617,3.50723 c -2.69328,1.92919 -4.98019,3.74945 -5.08168,4.04455 -0.10157,0.29509 3.26114,2.10081 7.47269,4.01264 4.21147,1.91184 7.6569,3.75293 7.6569,4.09178 0,0.33884 -0.47553,2.22759 -1.05734,4.19642 -0.5818,1.96882 -0.91617,3.72012 -0.74206,3.8914 0.17416,0.17128 2.45419,1.3186 5.06611,2.55001 l 4.74957,2.23862 0.63181,-1.63493 c 0.34746,-0.89909 1.8017,-5.67045 3.23167,-10.60338 1.43004,-4.93293 3.52296,-12.7912 4.65097,-17.46342 1.12807,-4.67223 2.92233,-12.55067 3.98804,-17.50681 l 1.93822,-9.01058 -1.43097,-0.90106 c -0.78685,-0.49569 -2.81395,-1.55419 -4.50437,-2.3522 z" />
  </g>
  <g
     inkscape:groupmode="layer"
     id="layer1"
     inkscape:label="ARCELIS PERFORMANCE ENERGETICA"
     transform="matrix(1.3433044,0,0,1.3433044,-169.08566,-768.38113)">
    <text
       xml:space="preserve"
       style="font-style:normal;font-variant:normal;font-weight:normal;font-stretch:normal;font-size:92.3298px;font-family:Montserrat;-inkscape-font-specification:'Montserrat, @wght=600';font-variant-ligatures:normal;font-variant-caps:normal;font-variant-numeric:normal;font-variant-east-asian:normal;font-variation-settings:'wght' 600;writing-mode:lr-tb;direction:ltr;fill:#121212;fill-opacity:1;stroke-width:0.979562"
       x="259.27905"
       y="686.36133"
       id="text33"
       transform="scale(1.0268669,0.97383603)"><tspan
         sodipodi:role="line"
         id="tspan33"
         x="259.27905"
         y="686.36133"
         style="font-style:normal;font-variant:normal;font-weight:normal;font-stretch:normal;font-size:92.3298px;font-family:Montserrat;-inkscape-font-specification:'Montserrat, @wght=600';font-variant-ligatures:normal;font-variant-caps:normal;font-variant-numeric:normal;font-variant-east-asian:normal;font-variation-settings:'wght' 600;fill:#121212;fill-opacity:1;stroke-width:0.979562">ARCELIS</tspan></text>
    <text
       xml:space="preserve"
       style="font-style:normal;font-variant:normal;font-weight:normal;font-stretch:normal;font-size:28.2119px;font-family:Montserrat;-inkscape-font-specification:'Montserrat, @wght=500';font-variant-ligatures:normal;font-variant-caps:normal;font-variant-numeric:normal;font-variant-east-asian:normal;font-variation-settings:'wght' 500;writing-mode:lr-tb;direction:ltr;fill:#c68346;fill-opacity:1;stroke-width:0.961769"
       x="261.39792"
       y="716.52155"
       id="text34"
       transform="scale(1.0082152,0.99185175)"><tspan
         sodipodi:role="line"
         id="tspan34"
         x="261.39792"
         y="716.52155"
         style="stroke-width:0.961769">PERFORMANCE ENERGÉTICA</tspan></text>
  </g>
</svg>
