<?xml version="1.0" encoding="UTF-8" standalone="no"?>
<!-- Created with Inkscape (http://www.inkscape.org/) -->

<svg
   version="1.1"
   id="svg1"
   width="750.27393"
   height="224.528"
   viewBox="0 0 750.27393 224.528"
   sodipodi:docname="ARCELIS_branco_horizontal.svg"
   inkscape:version="1.4.2 (f4327f4, 2025-05-13)"
   xmlns:inkscape="http://www.inkscape.org/namespaces/inkscape"
   xmlns:sodipodi="http://sodipodi.sourceforge.net/DTD/sodipodi-0.dtd"
   xmlns="http://www.w3.org/2000/svg"
   xmlns:svg="http://www.w3.org/2000/svg">
  <defs
     id="defs1">
    <rect
       x="174.07112"
       y="213.56625"
       width="152.12938"
       height="175.53391"
       id="rect32" />
  </defs>
  <sodipodi:namedview
     id="namedview1"
     pagecolor="#ffffff"
     bordercolor="#000000"
     borderopacity="0.25"
     inkscape:showpageshadow="2"
     inkscape:pageopacity="0.0"
     inkscape:pagecheckerboard="0"
     inkscape:deskcolor="#d1d1d1"
     inkscape:zoom="0.48339844"
     inkscape:cx="507.86262"
     inkscape:cy="65.163636"
     inkscape:window-width="1920"
     inkscape:window-height="1009"
     inkscape:window-x="1912"
     inkscape:window-y="-8"
     inkscape:window-maximized="1"
     inkscape:current-layer="layer1" />
  <g
     inkscape:groupmode="layer"
     inkscape:label="Image"
     id="g1"
     transform="translate(-124.67544,-398.45388)">
    <path
       id="path31"
       style="fill:#ffffff;fill-opacity:1;stroke-width:0.656952"
       d="m 273.11771,404.66567 c -0.58563,-0.11159 -5.57752,1.42206 -11.09369,3.40896 -5.51624,1.9869 -13.20208,4.99425 -17.07912,6.68263 -3.87705,1.68838 -10.91336,5.04192 -15.63565,7.45224 -4.7223,2.41031 -10.96367,5.77796 -13.8697,7.48286 -2.90603,1.7049 -7.80995,4.81089 -10.89762,6.90216 -3.08766,2.09126 -8.73459,6.27832 -12.54876,9.30539 -3.81417,3.02707 -9.90693,8.56339 -13.53946,12.30212 -3.63253,3.73874 -8.26627,8.99782 -10.29778,11.68695 -2.03145,2.68914 -5.22469,7.41661 -7.09609,10.50639 -1.87149,3.08978 -4.47381,7.91116 -5.78291,10.71442 -1.30904,2.80326 -3.55294,8.63214 -4.987,12.95303 -1.43407,4.32087 -3.21877,11.26175 -3.96535,15.42391 -0.99657,5.5565 -1.36187,10.43369 -1.3764,18.35044 -0.0124,6.89958 0.37483,13.29037 1.07584,17.74931 0.60247,3.83242 1.56107,8.53733 2.12973,10.45534 0.56872,1.91799 1.65259,4.14971 2.40836,4.95837 0.90199,0.96511 2.13875,1.47027 3.60028,1.47027 1.48334,0 2.76792,-0.53572 3.84798,-1.60429 0.89162,-0.88216 1.6189,-2.27894 1.6189,-3.10393 -9.6e-4,-0.82499 -0.65159,-4.58722 -1.44605,-8.36095 -1.20284,-5.71321 -1.45116,-9.10283 -1.48088,-20.2572 -0.0283,-10.48176 0.22592,-14.67527 1.16742,-19.27703 0.66178,-3.23462 2.25013,-9.11574 3.53063,-13.06917 1.2805,-3.95342 4.09105,-10.56968 6.246,-14.70281 2.15496,-4.13312 5.91432,-10.30056 8.35381,-13.70475 2.43948,-3.40421 8.00139,-9.74631 12.36043,-14.09402 4.35905,-4.34773 11.19483,-10.29959 15.19062,-13.22615 3.99579,-2.92658 11.72319,-7.95166 17.17199,-11.16623 5.44881,-3.21458 13.47342,-7.5949 17.83246,-9.73424 4.35905,-2.13932 11.64064,-5.36828 16.18132,-7.17528 4.54067,-1.807 8.89007,-3.47378 9.6644,-3.70505 0.94532,-0.28237 1.53402,-0.0948 1.79305,0.57304 0.21221,0.54707 1.43077,7.24655 2.70764,14.88661 1.27693,7.64004 2.62106,17.41977 2.98755,21.73259 0.36643,4.31283 0.66305,11.37017 0.66305,15.683 -0.003,4.31283 -0.2794,11.12759 -0.61532,15.14441 -0.33591,4.01682 -1.09811,10.192 -1.69372,13.72263 -0.59567,3.53063 -1.8248,9.3571 -2.73215,12.94791 -0.90734,3.59083 -2.68395,9.17789 -3.94729,12.41571 -1.26326,3.23783 -3.76294,8.64281 -5.55458,12.01113 -1.7917,3.36833 -4.94917,8.44919 -7.0174,11.29131 -2.0683,2.84212 -5.949,7.49869 -8.62341,10.34685 -2.67434,2.84815 -7.15168,7.00347 -9.95078,9.23392 -2.79904,2.23045 -7.17065,5.38184 -9.71343,7.00298 -2.54278,1.62114 -7.00089,4.21524 -9.90693,5.76499 -2.90602,1.54974 -5.63279,2.82236 -6.06024,2.82825 -0.42746,0.006 -1.54573,-1.65065 -2.48576,-3.68209 -0.92528,-1.9997 -1.60939,-3.69864 -1.53892,-3.81993 l 9.6e-4,-9.5e-4 v -9.5e-4 l 9.7e-4,-9.6e-4 9.6e-4,-9.5e-4 c 0.096,-0.072 2.99762,-1.98345 6.44852,-4.24747 3.45092,-2.26405 8.70361,-6.12533 11.6716,-8.58048 2.96805,-2.45515 7.38113,-6.63172 9.8076,-9.28243 2.42647,-2.65071 6.3189,-7.43459 8.64921,-10.63018 2.33024,-3.19559 6.14018,-9.63239 8.46731,-14.30462 2.32715,-4.67222 5.42972,-12.18783 6.89357,-16.70147 1.46385,-4.51364 3.34089,-11.86505 4.17175,-16.33646 1.32329,-7.12125 1.5091,-10.23772 1.5157,-25.11986 0.004,-14.54734 -0.21804,-18.44606 -1.54795,-27.11852 -0.85424,-5.57074 -1.66666,-10.24852 -1.80595,-10.39408 -0.1393,-0.14554 -2.26378,0.56069 -4.71998,1.56856 -2.45619,1.00787 -8.90936,4.0594 -14.34053,6.7809 -5.43124,2.7215 -12.71282,6.82323 -16.18131,9.11523 -3.46854,2.29201 -8.36236,5.82835 -10.87568,7.85938 -2.51338,2.03104 -7.27548,6.34008 -10.58287,9.57469 -3.30739,3.23462 -7.97469,8.38061 -10.3713,11.43553 -2.39662,3.05491 -5.6326,7.61278 -7.19155,10.12861 -1.55902,2.51581 -3.97513,6.96941 -5.36883,9.89759 -1.39371,2.92817 -2.53478,5.52877 -2.53478,5.77902 0,0.004 5.6e-4,0.01 0.003,0.0128 3.8e-4,5.5e-4 0.003,0.004 0.003,0.004 l 9.6e-4,9.5e-4 c 5.6e-4,4.4e-4 0.004,0.003 0.004,0.003 0.17174,0.0781 2.22544,-1.61325 4.70966,-3.88885 2.59574,-2.37777 7.65728,-6.27009 11.24848,-8.65067 3.5912,-2.38055 6.74369,-4.69936 7.00449,-5.15236 0.26083,-0.45299 2.40528,-3.07917 4.76643,-5.83517 2.36114,-2.75601 7.37646,-7.62821 11.14399,-10.82802 3.76755,-3.1998 9.73092,-7.7168 13.25309,-10.03671 3.52212,-2.31992 9.59488,-5.8876 13.49431,-7.92957 3.89944,-2.04196 7.25485,-3.54921 7.45729,-3.34896 0.20235,0.20024 0.61997,2.51212 0.92748,5.13832 0.3075,2.62621 0.57237,9.3912 0.58822,15.03337 0.0159,5.64217 -0.42274,13.67136 -0.97521,17.8412 -0.55248,4.16986 -1.57461,9.99223 -2.27033,12.93899 -0.69574,2.94674 -2.20915,8.00435 -3.36423,11.23897 -1.15508,3.23462 -3.44141,8.52763 -5.07988,11.76225 -1.63854,3.23462 -4.73161,8.41789 -6.87421,11.51849 -2.14261,3.10057 -5.89419,7.86247 -8.33704,10.58168 -2.44285,2.7192 -6.6717,6.77683 -9.3961,9.01823 -2.7244,2.24142 -6.69926,5.19378 -8.83367,6.56012 -2.13448,1.36632 -4.14113,2.32473 -4.45941,2.13011 -0.31827,-0.19463 -0.41001,-1.58539 -0.20382,-3.09116 0.20626,-1.50577 0.69364,-4.20792 1.08358,-6.00492 0.38993,-1.79702 1.5947,-5.24231 2.67667,-7.65516 1.34833,-3.00706 1.83394,-4.91357 1.5428,-6.06108 -0.23355,-0.92077 -1.01257,-2.25389 -1.72985,-2.96354 -0.844,-0.83507 -2.19466,-1.29033 -3.8299,-1.29033 -1.77895,0 -2.9273,0.43512 -3.88021,1.47027 -0.74446,0.80866 -1.71887,2.16867 -2.16455,3.02225 -0.44575,0.8536 -1.52028,3.6157 -2.38773,6.13893 -0.86739,2.52325 -1.88899,7.07266 -2.27034,10.10947 -0.48213,3.83679 -0.48389,7.01317 -0.007,10.40939 0.37785,2.68809 1.45029,7.14416 2.38386,9.90271 0.93355,2.75854 2.59783,6.78013 3.69702,8.93654 1.09928,2.15643 3.03757,5.62245 4.30849,7.7024 1.92004,3.1423 2.55182,3.71898 3.73444,3.41406 0.78285,-0.20184 6.47537,-2.86466 12.65068,-5.91813 6.17532,-3.05349 14.04005,-7.53129 17.47643,-9.94993 3.43645,-2.41866 9.34617,-7.33737 13.13312,-10.93139 3.78696,-3.59403 8.74087,-8.88704 11.00856,-11.76226 2.26768,-2.87522 5.50069,-7.47643 7.18381,-10.22432 1.68319,-2.74789 4.52685,-8.04091 6.31953,-11.76225 1.79276,-3.72135 4.32161,-9.98065 5.61908,-13.91024 1.29742,-3.92958 2.95863,-10.05805 3.69188,-13.61798 0.73324,-3.55992 1.77609,-9.46061 2.31806,-13.11256 0.54198,-3.65195 1.16529,-12.2263 1.38543,-19.05494 0.24127,-7.48494 0.0885,-16.43818 -0.38571,-22.54432 -0.4326,-5.57073 -1.79813,-16.00972 -3.03399,-23.19777 -1.23586,-7.18804 -3.08505,-16.44861 -4.10982,-20.57883 -1.3418,-5.40789 -2.16143,-7.5665 -2.92822,-7.7126 z m -48.59939,78.09848 -17.41838,11.45084 c -9.58006,6.29811 -19.79605,13.47992 -22.70208,15.95996 -2.90603,2.48002 -6.81122,6.51554 -8.67887,8.96718 -1.86765,2.45166 -4.44943,6.59316 -5.73648,9.20331 -1.28703,2.61014 -2.82566,6.47435 -3.41969,8.58813 -0.59408,2.11377 -1.24792,7.45749 -1.45379,11.87455 -0.2258,4.84557 -0.0581,10.32822 0.4244,13.82219 0.43994,3.18499 1.36168,7.94748 2.04718,10.58423 0.68549,2.63675 1.03506,4.99154 0.77656,5.2315 -0.25851,0.23995 -2.86034,0.91197 -5.78162,1.49325 -2.92129,0.58129 -8.71737,1.47226 -12.879,1.9808 -6.74979,0.82479 -7.72657,1.10981 -9.05297,2.63552 -0.81785,0.9407 -1.48733,2.53582 -1.48733,3.54552 0,1.0097 0.64917,2.65152 1.44217,3.64891 l 1.44219,1.8136 6.64847,-0.39054 c 3.65685,-0.21475 9.76916,-0.96917 13.58333,-1.67704 3.81416,-0.70788 7.82646,-1.47208 8.91622,-1.69874 1.96686,-0.40905 2.01135,-0.35293 6.07445,7.6424 2.25124,4.42993 5.76136,10.54798 7.8004,13.59628 2.03905,3.04829 4.31708,6.05751 5.06183,6.68646 0.74466,0.62895 2.28707,1.13329 3.42743,1.12186 1.14029,-0.0114 2.54542,-0.37901 3.1217,-0.81682 0.57639,-0.43783 1.39371,-1.43827 1.81628,-2.22331 0.42263,-0.78503 0.76753,-1.92457 0.76753,-2.53342 0,-0.60886 -1.87793,-4.08379 -4.17433,-7.72153 -2.29641,-3.63775 -5.38412,-8.81913 -6.86132,-11.51466 -1.47718,-2.6955 -3.74631,-7.55217 -5.04246,-10.79226 -1.29609,-3.24008 -3.10313,-8.64718 -4.01437,-12.01623 -0.9113,-3.36905 -1.9754,-8.99747 -2.36579,-12.5076 -0.51014,-4.58632 -0.50585,-8.00859 0.0143,-12.16174 0.39805,-3.17861 1.43337,-7.80238 2.30129,-10.27538 0.86798,-2.47298 2.61593,-6.04243 3.88408,-7.93211 1.26815,-1.88968 3.76111,-4.87626 5.5404,-6.63669 1.77928,-1.76042 5.43956,-4.8266 8.13322,-6.81408 2.69369,-1.98749 8.61179,-6.11092 13.15247,-9.16246 4.54067,-3.05156 8.6237,-5.76672 9.0736,-6.03428 0.51787,-0.308 0.70454,-0.1749 0.50825,0.36374 -0.1706,0.46792 -1.36543,4.80561 -2.65603,9.63979 -1.29061,4.83418 -2.45068,8.89295 -2.57735,9.01823 -0.1266,0.12529 -2.01193,-0.62687 -4.1898,-1.67065 l -3.96019,-1.89784 -4.86832,3.50723 c -2.67797,1.92919 -4.95188,3.74945 -5.05279,4.04455 -0.10099,0.29509 3.24259,2.10081 7.43019,4.01264 4.18753,1.91184 7.61336,3.75293 7.61336,4.09178 0,0.33884 -0.47283,2.22759 -1.05132,4.19642 -0.57849,1.96882 -0.91096,3.72012 -0.73785,3.8914 0.17317,0.17128 2.44024,1.3186 5.0373,2.55001 l 4.72256,2.23862 0.62822,-1.63493 c 0.34548,-0.89909 1.79145,-5.67045 3.2133,-10.60338 1.4219,-4.93293 3.50292,-12.7912 4.62451,-17.46342 1.12166,-4.67223 2.90572,-12.55067 3.96536,-17.50681 l 1.9272,-9.01058 -1.42283,-0.90106 c -0.78238,-0.49569 -2.79795,-1.55419 -4.47875,-2.3522 z" />
  </g>
  <g
     inkscape:groupmode="layer"
     id="layer1"
     inkscape:label="ARCELIS PERFORMANCE ENERGETICA"
     transform="matrix(1.3433044,0,0,1.3433044,-169.08567,-768.38113)">
    <text
       xml:space="preserve"
       style="font-style:normal;font-variant:normal;font-weight:normal;font-stretch:normal;font-size:92.0669px;font-family:Montserrat;-inkscape-font-specification:'Montserrat, @wght=600';font-variant-ligatures:normal;font-variant-caps:normal;font-variant-numeric:normal;font-variant-east-asian:normal;font-variation-settings:'wght' 600;writing-mode:lr-tb;direction:ltr;fill:#ffffff;fill-opacity:1;stroke-width:0.976773"
       x="262.29062"
       y="684.40692"
       id="text33"
       transform="scale(1.0239429,0.97661696)"><tspan
         sodipodi:role="line"
         id="tspan33"
         x="262.29062"
         y="684.40692"
         style="font-style:normal;font-variant:normal;font-weight:normal;font-stretch:normal;font-size:92.0669px;font-family:Montserrat;-inkscape-font-specification:'Montserrat, @wght=600';font-variant-ligatures:normal;font-variant-caps:normal;font-variant-numeric:normal;font-variant-east-asian:normal;font-variation-settings:'wght' 600;fill:#ffffff;fill-opacity:1;stroke-width:0.976773">ARCELIS</tspan></text>
    <text
       xml:space="preserve"
       style="font-style:normal;font-variant:normal;font-weight:normal;font-stretch:normal;font-size:28.1315px;font-family:Montserrat;-inkscape-font-specification:'Montserrat, @wght=500';font-variant-ligatures:normal;font-variant-caps:normal;font-variant-numeric:normal;font-variant-east-asian:normal;font-variation-settings:'wght' 500;writing-mode:lr-tb;direction:ltr;fill:#ffffff;fill-opacity:1;stroke-width:0.959031"
       x="264.50763"
       y="716.02942"
       id="text34"
       transform="scale(1.0053442,0.9946842)"><tspan
         sodipodi:role="line"
         id="tspan34"
         x="264.50763"
         y="716.02942"
         style="fill:#ffffff;stroke-width:0.959031">PERFORMANCE ENERGÉTICA</tspan></text>
  </g>
</svg>
