<?xml version="1.0" encoding="UTF-8" standalone="no"?>
<!-- Created with Inkscape (http://www.inkscape.org/) -->

<svg
   version="1.1"
   id="svg1"
   width="427.97894"
   height="501.6774"
   viewBox="0 0 427.97894 501.6774"
   sodipodi:docname="ARCELIS_colorido_vertical.svg"
   inkscape:version="1.4.2 (f4327f4, 2025-05-13)"
   xmlns:inkscape="http://www.inkscape.org/namespaces/inkscape"
   xmlns:sodipodi="http://sodipodi.sourceforge.net/DTD/sodipodi-0.dtd"
   xmlns="http://www.w3.org/2000/svg"
   xmlns:svg="http://www.w3.org/2000/svg">
  <defs
     id="defs1">
    <rect
       x="174.07112"
       y="213.56625"
       width="152.12938"
       height="175.53391"
       id="rect32" />
  </defs>
  <sodipodi:namedview
     id="namedview1"
     pagecolor="#ffffff"
     bordercolor="#000000"
     borderopacity="0.25"
     inkscape:showpageshadow="2"
     inkscape:pageopacity="0.0"
     inkscape:pagecheckerboard="0"
     inkscape:deskcolor="#d1d1d1"
     inkscape:zoom="0.48339844"
     inkscape:cx="191.35353"
     inkscape:cy="249.27677"
     inkscape:window-width="1920"
     inkscape:window-height="1009"
     inkscape:window-x="1912"
     inkscape:window-y="-8"
     inkscape:window-maximized="1"
     inkscape:current-layer="g1" />
  <g
     inkscape:groupmode="layer"
     inkscape:label="Image"
     id="g1"
     transform="translate(-291.84255,-214.53231)">
    <path
       id="path31"
       style="fill:#06402b;fill-opacity:1;stroke-width:1.04662"
       d="m 605.31301,224.88484 c -0.93627,-0.17716 -8.91693,2.25767 -17.73578,5.41206 -8.81895,3.15439 -21.1065,7.92887 -27.30483,10.60934 -6.19833,2.68045 -17.44746,8.00454 -24.99712,11.83115 -7.54966,3.8266 -17.5279,9.17308 -22.17384,11.87978 -4.64595,2.7067 -12.48599,7.63776 -17.4223,10.95785 -4.93632,3.3201 -13.96423,9.96746 -20.06204,14.77323 -6.09781,4.80577 -15.83846,13.59522 -21.64589,19.53082 -5.80743,5.93562 -13.2155,14.28491 -16.46333,18.55419 -3.24773,4.26927 -8.35283,11.77458 -11.34471,16.67991 -2.99199,4.90534 -7.15239,12.55974 -9.24528,17.0102 -2.0928,4.45045 -5.68018,13.70437 -7.97285,20.5642 -2.29268,6.85981 -5.14592,17.87915 -6.3395,24.48697 -1.59324,8.82149 -2.17725,16.56451 -2.20048,29.13313 -0.0199,10.95376 0.59924,21.09976 1.71996,28.17877 0.96319,6.08435 2.49573,13.55384 3.40487,16.59887 0.90922,3.04501 2.64203,6.58807 3.8503,7.8719 1.44203,1.53221 3.41927,2.33422 5.75586,2.33422 2.37145,0 4.42515,-0.85052 6.15186,-2.54698 1.42546,-1.40053 2.58818,-3.61803 2.58818,-4.92779 -0.002,-1.30975 -1.04171,-7.28267 -2.31184,-13.27383 -1.92301,-9.07029 -2.32,-14.45164 -2.36752,-32.1603 -0.0453,-16.64082 0.3612,-23.29843 1.86639,-30.60417 1.05801,-5.13528 3.59733,-14.47214 5.6445,-20.74859 2.04717,-6.27644 6.54048,-16.78041 9.98565,-23.34216 3.44518,-6.56173 9.45538,-16.35315 13.35545,-21.75764 3.90006,-5.40451 12.79203,-15.47322 19.76094,-22.37564 6.96892,-6.90245 17.89746,-16.3516 24.28564,-20.99782 6.38816,-4.64622 18.74217,-12.62402 27.45331,-17.72748 8.71115,-5.10346 21.5403,-12.05764 28.50922,-15.45405 6.96892,-3.39638 18.61019,-8.52267 25.86948,-11.39145 7.25929,-2.8688 14.2128,-5.51498 15.45074,-5.88215 1.51131,-0.44828 2.45247,-0.15055 2.86659,0.90977 0.33927,0.86852 2.28741,11.5046 4.32877,23.63395 2.04147,12.12932 4.19036,27.65559 4.77628,34.50261 0.58581,6.84705 1.06003,18.05128 1.06003,24.89831 -0.004,6.84704 -0.44669,17.66614 -0.98372,24.04324 -0.53703,6.37709 -1.75558,16.18079 -2.7078,21.78601 -0.95231,5.60522 -2.91735,14.85533 -4.36795,20.55608 -1.45058,5.70079 -4.29091,14.57081 -6.31063,19.71117 -2.01961,5.14037 -6.01592,13.72131 -8.88026,19.06884 -2.86444,5.34755 -7.91237,13.41392 -11.21889,17.92606 -3.30666,4.51214 -9.51083,11.90491 -13.78648,16.42664 -4.27554,4.52172 -11.43358,11.1187 -15.90857,14.65976 -4.4749,3.54105 -11.46391,8.54419 -15.52911,11.11792 -4.06521,2.57373 -11.19251,6.69211 -15.83846,9.15248 -4.64594,2.46036 -9.0053,4.48078 -9.68867,4.49013 -0.68339,0.01 -2.4712,-2.62057 -3.97406,-5.84568 -1.47926,-3.17472 -2.57297,-5.87195 -2.46031,-6.06451 l 0.002,-0.002 v -0.002 l 0.002,-0.002 0.002,-0.002 c 0.15352,-0.1143 4.79236,-3.14892 10.30942,-6.74329 5.51706,-3.59439 13.91469,-9.72455 18.65968,-13.62235 4.7451,-3.89778 11.80041,-10.52851 15.67967,-14.73677 3.87925,-4.20825 10.10218,-11.80314 13.8277,-16.87645 3.72542,-5.0733 9.81647,-15.29236 13.53693,-22.70998 3.72046,-7.41761 8.68063,-19.34938 11.02093,-26.51523 2.34029,-7.16584 5.34116,-18.83692 6.66948,-25.93573 2.11558,-11.30567 2.41263,-16.25339 2.42319,-39.88024 0.007,-23.09534 -0.3486,-29.28494 -2.47476,-43.05332 -1.36569,-8.84408 -2.66453,-16.27053 -2.88722,-16.50161 -0.22269,-0.23107 -3.61916,0.89015 -7.54594,2.49023 -3.92678,1.6001 -14.24362,6.44471 -22.92659,10.76535 -8.68306,4.32065 -20.32432,10.83255 -25.86947,14.47133 -5.54525,3.63877 -13.36913,9.25307 -17.38724,12.47753 -4.01821,3.22448 -11.63149,10.06549 -16.9191,15.20076 -5.28762,5.13528 -12.74934,13.30504 -16.58087,18.15502 -3.83154,4.84998 -9.00498,12.08605 -11.49732,16.08015 -2.49244,3.99411 -6.35514,11.06464 -8.58329,15.71342 -2.22816,4.64876 -4.05242,8.77746 -4.05242,9.17475 0,0.007 9e-4,0.015 0.005,0.0202 6.2e-4,8.8e-4 0.004,0.006 0.005,0.006 l 0.002,0.002 c 9e-4,7e-4 0.006,0.004 0.006,0.005 0.27458,0.12404 3.55788,-2.5612 7.52946,-6.17393 4.14988,-3.77495 12.24191,-9.95439 17.98325,-13.73379 5.74133,-3.77937 10.7813,-7.46071 11.19826,-8.17988 0.41698,-0.71918 3.84537,-4.88848 7.6202,-9.26392 3.77483,-4.37543 11.79295,-12.11053 17.81621,-17.19052 6.02326,-5.08001 15.55706,-12.25118 21.18805,-15.93428 5.63089,-3.68309 15.33959,-9.34713 21.5737,-12.58895 6.23412,-3.24182 11.59852,-5.63473 11.92216,-5.31682 0.32352,0.31791 0.99116,3.98824 1.48279,8.15759 0.49162,4.16936 0.91506,14.90945 0.9404,23.86695 0.0255,8.95751 -0.67584,21.70462 -1.55909,28.32466 -0.88326,6.62005 -2.51736,15.86365 -3.62965,20.54191 -1.11228,4.67825 -3.53182,12.7077 -5.37847,17.84298 -1.84666,5.13527 -5.50187,13.53844 -8.12134,18.67372 -2.61957,5.13528 -7.56454,13.36422 -10.98998,18.28672 -3.42544,4.92248 -9.4232,12.48245 -13.32864,16.79946 -3.90545,4.317 -10.66621,10.75888 -15.02178,14.31734 -4.35558,3.55847 -10.71028,8.24564 -14.12263,10.41482 -3.41245,2.16918 -6.62052,3.69076 -7.12936,3.38177 -0.50884,-0.309 -0.65551,-2.51698 -0.32585,-4.90753 0.32975,-2.39055 1.10893,-6.68048 1.73233,-9.5334 0.62341,-2.85294 2.5495,-8.32269 4.27927,-12.15332 2.15561,-4.77398 2.93196,-7.80076 2.46651,-9.62256 -0.37337,-1.46181 -1.61883,-3.57825 -2.76554,-4.70492 -1.34933,-1.32573 -3.50866,-2.04851 -6.12297,-2.04851 -2.84405,0 -4.67995,0.69081 -6.2034,2.33421 -1.19019,1.28383 -2.748,3.44296 -3.46052,4.79811 -0.71262,1.35518 -2.43051,5.74028 -3.81732,9.74616 -1.38672,4.0059 -3.01998,11.22854 -3.62965,16.04977 -0.77081,6.09128 -0.77362,11.1341 -0.0106,16.52593 0.60407,4.26759 2.31861,11.34205 3.81112,15.72151 1.4925,4.37947 4.15322,10.76413 5.91054,14.18766 1.75744,3.42352 4.85623,8.92618 6.88809,12.22829 3.0696,4.98872 4.07966,5.90426 5.97035,5.42016 1.25156,-0.32043 10.35233,-4.54792 20.22497,-9.39562 9.87264,-4.84771 22.44619,-11.95665 27.94002,-15.79648 5.49394,-3.83985 14.94195,-11.6488 20.99626,-17.35465 6.05429,-5.70587 13.97423,-14.10905 17.59966,-18.67374 3.62542,-4.56469 8.79409,-11.86958 11.48495,-16.23211 2.69096,-4.36255 7.23718,-12.76573 10.1032,-18.67373 2.86612,-5.90801 6.90905,-15.84527 8.98337,-22.08387 2.0742,-6.23861 4.73003,-15.96813 5.90229,-21.61988 1.17226,-5.65172 2.83949,-15.01964 3.70596,-20.81747 0.86647,-5.79782 1.86297,-19.41046 2.2149,-30.2516 0.38573,-11.88306 0.14151,-26.09722 -0.61663,-35.79131 -0.69161,-8.84408 -2.87472,-25.41702 -4.85052,-36.82873 -1.97579,-11.41174 -4.93215,-26.1138 -6.57049,-32.67092 -2.14515,-8.58557 -3.45552,-12.01256 -4.68141,-12.24451 z m -77.69712,123.98901 -27.84721,18.17933 c -15.31589,9.99886 -31.64846,21.4007 -36.2944,25.338 -4.64594,3.93728 -10.88927,10.34405 -13.87513,14.23629 -2.98587,3.89224 -7.11343,10.46726 -9.17106,14.61114 -2.05762,4.14386 -4.51746,10.27866 -5.46715,13.6345 -0.94977,3.35582 -1.99509,11.8395 -2.32421,18.85202 -0.36101,7.6928 -0.0929,16.39705 0.6785,21.94407 0.70334,5.05649 2.17695,12.61743 3.27287,16.80351 1.09591,4.18609 1.65477,7.92455 1.2415,8.30552 -0.41328,0.38094 -4.57289,1.44784 -9.24322,2.37069 -4.67034,0.92285 -13.93668,2.33735 -20.58999,3.14471 -10.79105,1.30944 -12.35266,1.76194 -14.47322,4.18415 -1.30752,1.49344 -2.37783,4.02587 -2.37783,5.62886 0,1.603 1.03785,4.20953 2.30565,5.793 l 2.30566,2.87927 10.62908,-0.62003 c 5.8463,-0.34093 15.6182,-1.53864 21.71601,-2.66247 6.0978,-1.12381 12.51238,-2.33707 14.25461,-2.69691 3.14446,-0.64941 3.21559,-0.56032 9.71137,12.13306 3.59912,7.03296 9.21084,16.74595 12.4707,21.58543 3.25988,4.83947 6.90185,9.61689 8.09248,10.61541 1.19052,0.99853 3.65641,1.79921 5.47952,1.78106 1.823,-0.0181 4.06943,-0.6017 4.99075,-1.29679 0.92149,-0.69508 2.22816,-2.28338 2.90373,-3.5297 0.67566,-1.2463 1.22706,-3.05544 1.22706,-4.02206 0,-0.96663 -3.00229,-6.48342 -6.67359,-12.25869 -3.67135,-5.77528 -8.60775,-14.00123 -10.96937,-18.28064 -2.36162,-4.27939 -5.98933,-11.98983 -8.06153,-17.13379 -2.07209,-5.14394 -4.96104,-13.72825 -6.41787,-19.07695 -1.45693,-5.34869 -3.15812,-14.28435 -3.78225,-19.85704 -0.81559,-7.28123 -0.80873,-12.71441 0.0227,-19.30794 0.63638,-5.04636 2.29158,-12.38705 3.67913,-16.31317 1.38766,-3.92611 4.18216,-9.59295 6.20959,-12.59301 2.02742,-3.00005 6.01299,-7.74155 8.85758,-10.53639 2.84458,-2.79484 8.69637,-7.66271 13.00279,-10.81803 4.30648,-3.15533 13.7679,-9.70168 21.0272,-14.5463 7.25929,-4.84465 13.78693,-9.15523 14.50621,-9.58002 0.82792,-0.48897 1.12635,-0.27767 0.81254,0.57748 -0.27274,0.74286 -2.18294,7.62938 -4.24627,15.30412 -2.06333,7.67471 -3.91795,14.11842 -4.12047,14.31732 -0.20241,0.1989 -3.21653,-0.99522 -6.69834,-2.65233 l -6.33127,-3.01301 -7.78311,5.56808 c -4.28134,3.06279 -7.91669,5.95262 -8.07802,6.42112 -0.16145,0.46848 5.18403,3.33525 11.87884,6.37046 6.6947,3.03523 12.17168,5.95815 12.17168,6.49609 0,0.53796 -0.75592,3.53654 -1.68077,6.66225 -0.92487,3.1257 -1.45639,5.90605 -1.17963,6.17797 0.27685,0.27193 3.90127,2.09342 8.05327,4.0484 l 7.55008,3.55402 1.00433,-2.59561 c 0.55234,-1.4274 2.86406,-9.0024 5.13719,-16.83391 2.27324,-7.8315 5.60021,-20.30728 7.39333,-27.72489 1.79323,-7.41763 4.64544,-19.92541 6.33953,-27.79378 l 3.08105,-14.30518 -2.2747,-1.43052 c -1.25082,-0.78695 -4.47315,-2.46744 -7.1603,-3.73435 z" />
    <text
       xml:space="preserve"
       style="font-style:normal;font-variant:normal;font-weight:normal;font-stretch:normal;font-size:92.857px;font-family:Montserrat;-inkscape-font-specification:'Montserrat, @wght=600';font-variant-ligatures:normal;font-variant-caps:normal;font-variant-numeric:normal;font-variant-east-asian:normal;font-variation-settings:'wght' 600;writing-mode:lr-tb;direction:ltr;fill:#121212;fill-opacity:1;stroke-width:0.985155"
       x="289.98148"
       y="678.01355"
       id="text33"
       transform="scale(1.0275252,0.97321216)"><tspan
         sodipodi:role="line"
         id="tspan33"
         x="289.98148"
         y="678.01355"
         style="font-style:normal;font-variant:normal;font-weight:normal;font-stretch:normal;font-size:92.857px;font-family:Montserrat;-inkscape-font-specification:'Montserrat, @wght=600';font-variant-ligatures:normal;font-variant-caps:normal;font-variant-numeric:normal;font-variant-east-asian:normal;font-variation-settings:'wght' 600;fill:#121212;fill-opacity:1;stroke-width:0.985155">ARCELIS</tspan></text>
    <text
       xml:space="preserve"
       style="font-style:normal;font-variant:normal;font-weight:normal;font-stretch:normal;font-size:28.3729px;font-family:Montserrat;-inkscape-font-specification:'Montserrat, @wght=500';font-variant-ligatures:normal;font-variant-caps:normal;font-variant-numeric:normal;font-variant-east-asian:normal;font-variation-settings:'wght' 500;writing-mode:lr-tb;direction:ltr;fill:#c68346;fill-opacity:1;stroke-width:0.967261"
       x="294.71039"
       y="707.5177"
       id="text34"
       transform="scale(1.0088614,0.99121643)"><tspan
         sodipodi:role="line"
         id="tspan34"
         x="294.71039"
         y="707.5177"
         style="stroke-width:0.967261">PERFORMANCE ENERGÉTICA</tspan></text>
  </g>
</svg>
