<svg xmlns="http://www.w3.org/2000/svg" xmlns:xlink="http://www.w3.org/1999/xlink" width="540" zoomAndPan="magnify" viewBox="0 0 404.88 627.000003" height="836" preserveAspectRatio="xMidYMid meet" version="1.0"><defs><filter x="0%" y="0%" width="100%" height="100%" id="f0fa4bb86a"><feColorMatrix values="0 0 0 0 1 0 0 0 0 1 0 0 0 0 1 0 0 0 1 0" color-interpolation-filters="sRGB"/></filter><g/><clipPath id="eb107aecf5"><path d="M 0.261719 0 L 404.496094 0 L 404.496094 626 L 0.261719 626 Z M 0.261719 0 " clip-rule="nonzero"/></clipPath><mask id="1ef0599b1e"><g filter="url(#f0fa4bb86a)"><rect x="-40.488" width="485.856" fill="#000000" y="-62.7" height="752.400004" fill-opacity="0.25"/></g></mask><clipPath id="b67e96152e"><path d="M 0.261719 0 L 403.867188 0 L 403.867188 625.253906 L 0.261719 625.253906 Z M 0.261719 0 " clip-rule="nonzero"/></clipPath><clipPath id="2311233d3f"><rect x="0" width="405" y="0" height="626"/></clipPath></defs><g clip-path="url(#eb107aecf5)"><g mask="url(#1ef0599b1e)"><g transform="matrix(1, 0, 0, 1, 0, 0.00000000000004095)"><g clip-path="url(#2311233d3f)"><g clip-path="url(#b67e96152e)"><path fill="#000000" d="M 374.347656 0.191406 C 372.710938 -0.136719 358.773438 4.339844 343.367188 10.136719 C 327.964844 15.933594 306.503906 24.707031 295.675781 29.632812 C 284.847656 34.558594 265.199219 44.34375 252.011719 51.375 C 238.828125 58.410156 221.398438 68.234375 213.28125 73.207031 C 205.167969 78.183594 191.472656 87.246094 182.851562 93.347656 C 174.230469 99.449219 158.460938 111.664062 147.808594 120.496094 C 137.15625 129.328125 120.144531 145.480469 110 156.386719 C 99.855469 167.296875 86.917969 182.640625 81.242188 190.484375 C 75.570312 198.332031 66.652344 212.125 61.429688 221.140625 C 56.203125 230.152344 48.933594 244.222656 45.277344 252.398438 C 41.625 260.578125 35.359375 277.585938 31.351562 290.191406 C 27.347656 302.796875 22.363281 323.046875 20.28125 335.191406 C 17.496094 351.402344 16.476562 365.632812 16.4375 388.730469 C 16.402344 408.863281 17.484375 427.507812 19.441406 440.515625 C 21.121094 451.699219 23.800781 465.425781 25.386719 471.019531 C 26.976562 476.617188 30.003906 483.128906 32.113281 485.488281 C 34.632812 488.304688 38.085938 489.777344 42.167969 489.777344 C 46.308594 489.777344 49.894531 488.214844 52.914062 485.097656 C 55.402344 482.523438 57.433594 478.449219 57.433594 476.039062 C 57.429688 473.632812 55.613281 462.65625 53.394531 451.648438 C 50.035156 434.976562 49.34375 425.089844 49.257812 392.542969 C 49.179688 361.964844 49.890625 349.726562 52.519531 336.300781 C 54.367188 326.863281 58.804688 309.707031 62.378906 298.171875 C 65.953125 286.636719 73.804688 267.332031 79.820312 255.273438 C 85.839844 243.214844 96.335938 225.222656 103.148438 215.289062 C 109.960938 205.355469 125.492188 186.855469 137.664062 174.167969 C 149.835938 161.484375 168.925781 144.117188 180.085938 135.578125 C 191.242188 127.042969 212.820312 112.378906 228.035156 103 C 243.253906 93.621094 265.660156 80.84375 277.832031 74.601562 C 290.007812 68.359375 310.339844 58.9375 323.019531 53.667969 C 335.699219 48.394531 347.84375 43.53125 350.007812 42.855469 C 352.648438 42.03125 354.292969 42.578125 355.015625 44.527344 C 355.605469 46.125 359.011719 65.671875 362.574219 87.960938 C 366.140625 110.253906 369.894531 138.785156 370.917969 151.367188 C 371.941406 163.953125 372.769531 184.542969 372.769531 197.125 C 372.761719 209.707031 371.988281 229.589844 371.050781 241.3125 C 370.113281 253.03125 367.984375 271.046875 366.320312 281.347656 C 364.660156 291.648438 361.226562 308.648438 358.691406 319.125 C 356.160156 329.601562 351.199219 345.902344 347.667969 355.347656 C 344.140625 364.796875 337.160156 380.566406 332.160156 390.390625 C 327.15625 400.21875 318.339844 415.042969 312.5625 423.335938 C 306.785156 431.628906 295.949219 445.214844 288.480469 453.523438 C 281.011719 461.832031 268.511719 473.957031 260.695312 480.464844 C 252.878906 486.972656 240.671875 496.167969 233.570312 500.898438 C 226.46875 505.625 214.019531 513.195312 205.90625 517.714844 C 197.789062 522.238281 190.175781 525.949219 188.980469 525.96875 C 187.789062 525.988281 184.664062 521.152344 182.039062 515.226562 C 179.457031 509.390625 177.546875 504.433594 177.742188 504.082031 L 177.746094 504.078125 L 177.746094 504.074219 L 177.753906 504.066406 C 178.023438 503.855469 186.125 498.277344 195.761719 491.671875 C 205.398438 485.066406 220.066406 473.800781 228.355469 466.640625 C 236.640625 459.476562 248.964844 447.289062 255.742188 439.554688 C 262.515625 431.824219 273.386719 417.867188 279.894531 408.542969 C 286.402344 399.21875 297.039062 380.4375 303.539062 366.808594 C 310.039062 353.175781 318.699219 331.246094 322.789062 318.078125 C 326.875 304.910156 332.117188 283.460938 334.4375 270.414062 C 338.132812 249.636719 338.652344 240.546875 338.671875 197.125 C 338.683594 154.683594 338.0625 143.308594 334.347656 118.003906 C 331.964844 101.75 329.695312 88.101562 329.304688 87.679688 C 328.917969 87.253906 322.984375 89.316406 316.125 92.253906 C 309.265625 95.195312 291.246094 104.097656 276.078125 112.039062 C 260.914062 119.980469 240.578125 131.945312 230.894531 138.632812 C 221.207031 145.320312 207.542969 155.636719 200.523438 161.5625 C 193.503906 167.488281 180.207031 180.0625 170.96875 189.5 C 161.734375 198.9375 148.703125 213.949219 142.007812 222.863281 C 135.316406 231.777344 126.28125 245.074219 121.925781 252.414062 C 117.574219 259.753906 110.824219 272.75 106.933594 281.292969 C 103.042969 289.835938 99.855469 297.421875 99.855469 298.152344 C 99.855469 298.164062 99.855469 298.179688 99.863281 298.191406 C 99.867188 298.191406 99.871094 298.199219 99.875 298.199219 L 99.878906 298.203125 C 99.878906 298.207031 99.886719 298.210938 99.886719 298.214844 C 100.367188 298.441406 106.101562 293.507812 113.039062 286.867188 C 120.289062 279.929688 134.421875 268.574219 144.453125 261.628906 C 154.480469 254.683594 163.28125 247.917969 164.011719 246.597656 C 164.738281 245.273438 170.726562 237.613281 177.320312 229.570312 C 183.914062 221.53125 197.921875 207.316406 208.441406 197.980469 C 218.960938 188.644531 235.613281 175.464844 245.449219 168.695312 C 255.285156 161.925781 272.242188 151.519531 283.132812 145.5625 C 294.023438 139.601562 303.390625 135.207031 303.957031 135.789062 C 304.523438 136.375 305.6875 143.121094 306.546875 150.78125 C 307.40625 158.445312 308.144531 178.179688 308.1875 194.644531 C 308.234375 211.105469 307.007812 234.53125 305.464844 246.695312 C 303.921875 258.863281 301.070312 275.847656 299.125 284.445312 C 297.183594 293.042969 292.957031 307.800781 289.730469 317.238281 C 286.507812 326.675781 280.121094 342.117188 275.546875 351.554688 C 270.972656 360.992188 262.332031 376.117188 256.351562 385.160156 C 250.367188 394.207031 239.890625 408.101562 233.070312 416.035156 C 226.246094 423.96875 214.4375 435.808594 206.832031 442.347656 C 199.222656 448.886719 188.121094 457.5 182.164062 461.484375 C 176.203125 465.472656 170.597656 468.269531 169.710938 467.699219 C 168.820312 467.132812 168.566406 463.074219 169.140625 458.683594 C 169.714844 454.289062 171.078125 446.40625 172.167969 441.164062 C 173.253906 435.917969 176.621094 425.867188 179.640625 418.828125 C 183.40625 410.054688 184.761719 404.492188 183.949219 401.144531 C 183.296875 398.457031 181.121094 394.566406 179.117188 392.496094 C 176.761719 390.0625 172.992188 388.734375 168.425781 388.734375 C 163.457031 388.734375 160.25 390.003906 157.589844 393.023438 C 155.507812 395.382812 152.789062 399.351562 151.542969 401.839844 C 150.300781 404.332031 147.296875 412.390625 144.875 419.75 C 142.453125 427.113281 139.601562 440.386719 138.535156 449.246094 C 137.191406 460.441406 137.183594 469.707031 138.519531 479.617188 C 139.574219 487.460938 142.566406 500.460938 145.175781 508.507812 C 147.78125 516.558594 152.429688 528.289062 155.5 534.582031 C 158.566406 540.875 163.980469 550.988281 167.53125 557.054688 C 172.890625 566.222656 174.65625 567.90625 177.957031 567.015625 C 180.144531 566.425781 196.039062 558.65625 213.285156 549.75 C 230.53125 540.839844 252.492188 527.777344 262.085938 520.71875 C 271.683594 513.664062 288.1875 499.3125 298.761719 488.824219 C 309.335938 478.339844 323.171875 462.898438 329.503906 454.507812 C 335.835938 446.121094 344.863281 432.695312 349.5625 424.675781 C 354.265625 416.660156 362.203125 401.21875 367.210938 390.359375 C 372.21875 379.503906 379.277344 361.242188 382.902344 349.777344 C 386.523438 338.3125 391.164062 320.429688 393.210938 310.042969 C 395.257812 299.65625 398.171875 282.441406 399.683594 271.785156 C 401.199219 261.132812 402.9375 236.113281 403.554688 216.191406 C 404.226562 194.355469 403.800781 168.230469 402.476562 150.417969 C 401.269531 134.164062 397.453125 103.707031 394.003906 82.734375 C 390.550781 61.761719 385.390625 34.746094 382.527344 22.695312 C 378.78125 6.914062 376.492188 0.617188 374.351562 0.191406 Z M 238.632812 228.050781 L 189.996094 261.460938 C 163.242188 279.835938 134.714844 300.789062 126.597656 308.023438 C 118.484375 315.261719 107.578125 327.035156 102.363281 334.1875 C 97.148438 341.339844 89.9375 353.421875 86.34375 361.039062 C 82.75 368.652344 78.453125 379.929688 76.792969 386.09375 C 75.136719 392.261719 73.308594 407.851562 72.734375 420.742188 C 72.105469 434.878906 72.574219 450.875 73.921875 461.066406 C 75.148438 470.359375 77.722656 484.253906 79.636719 491.949219 C 81.550781 499.640625 82.527344 506.511719 81.804688 507.210938 C 81.082031 507.910156 73.816406 509.871094 65.660156 511.570312 C 57.503906 513.265625 41.316406 515.863281 29.695312 517.347656 C 10.847656 519.753906 8.121094 520.585938 4.414062 525.039062 C 2.132812 527.78125 0.261719 532.4375 0.261719 535.382812 C 0.261719 538.328125 2.074219 543.117188 4.289062 546.027344 L 8.316406 551.320312 L 26.882812 550.179688 C 37.09375 549.554688 54.164062 547.351562 64.8125 545.285156 C 75.464844 543.222656 86.667969 540.992188 89.710938 540.332031 C 95.203125 539.136719 95.328125 539.300781 106.675781 562.628906 C 112.960938 575.554688 122.765625 593.402344 128.457031 602.296875 C 134.152344 611.191406 140.511719 619.96875 142.59375 621.804688 C 144.671875 623.640625 148.980469 625.113281 152.164062 625.078125 C 155.347656 625.042969 159.273438 623.972656 160.882812 622.695312 C 162.492188 621.417969 164.773438 618.5 165.953125 616.207031 C 167.132812 613.917969 168.097656 610.59375 168.097656 608.816406 C 168.097656 607.039062 162.851562 596.902344 156.441406 586.289062 C 150.027344 575.675781 141.40625 560.558594 137.28125 552.691406 C 133.15625 544.828125 126.816406 530.660156 123.199219 521.207031 C 119.578125 511.753906 114.53125 495.976562 111.988281 486.148438 C 109.445312 476.316406 106.472656 459.894531 105.382812 449.65625 C 103.957031 436.273438 103.96875 426.289062 105.421875 414.171875 C 106.535156 404.898438 109.425781 391.40625 111.847656 384.191406 C 114.273438 376.976562 119.152344 366.5625 122.695312 361.050781 C 126.234375 355.535156 133.199219 346.824219 138.164062 341.6875 C 143.132812 336.550781 153.355469 327.605469 160.878906 321.804688 C 168.398438 316.007812 184.925781 303.976562 197.605469 295.074219 C 210.285156 286.171875 221.6875 278.25 222.945312 277.46875 C 224.390625 276.570312 224.910156 276.957031 224.363281 278.527344 C 223.886719 279.894531 220.550781 292.550781 216.945312 306.652344 C 213.34375 320.757812 210.101562 332.601562 209.75 332.964844 C 209.394531 333.332031 204.128906 331.136719 198.050781 328.089844 L 186.992188 322.554688 L 173.394531 332.785156 C 165.917969 338.414062 159.566406 343.726562 159.285156 344.585938 C 159.003906 345.449219 168.339844 350.714844 180.035156 356.292969 C 191.726562 361.871094 201.292969 367.242188 201.292969 368.234375 C 201.292969 369.222656 199.972656 374.730469 198.359375 380.476562 C 196.742188 386.21875 195.816406 391.328125 196.296875 391.828125 C 196.78125 392.328125 203.113281 395.675781 210.363281 399.269531 L 223.550781 405.800781 L 225.308594 401.03125 C 226.273438 398.40625 230.308594 384.488281 234.28125 370.09375 C 238.25 355.703125 244.0625 332.773438 247.195312 319.144531 C 250.324219 305.511719 255.308594 282.523438 258.265625 268.066406 L 263.648438 241.777344 L 259.675781 239.148438 C 257.492188 237.699219 251.863281 234.613281 247.167969 232.285156 Z M 238.632812 228.050781 " fill-opacity="1" fill-rule="nonzero"/></g></g></g></g></g><g fill="#ffffff" fill-opacity="1"><g transform="translate(273.274759, 196.009419)"><g><path d="M 1.71875 -10.34375 L 1.71875 -12.765625 L 3.15625 -12.765625 L 3.15625 -10.34375 Z M 1.875 2 L 2.296875 -0.078125 L 1.71875 -0.078125 L 1.71875 -2.421875 L 3.34375 -2.421875 L 3.34375 -0.078125 L 2.734375 2 Z M 1.875 2 "/></g></g></g></svg>