<svg xmlns="http://www.w3.org/2000/svg" xmlns:xlink="http://www.w3.org/1999/xlink" width="432" zoomAndPan="magnify" viewBox="0 0 324 323.999988" height="432" preserveAspectRatio="xMidYMid meet" version="1.0"><defs><g/></defs><path fill="#10c03e" d="M 324.023438 162.023438 C 324.023438 164.675781 323.957031 167.324219 323.828125 169.972656 C 323.699219 172.621094 323.503906 175.261719 323.242188 177.902344 C 322.984375 180.539062 322.660156 183.171875 322.269531 185.792969 C 321.882812 188.417969 321.429688 191.027344 320.910156 193.628906 C 320.394531 196.226562 319.8125 198.8125 319.167969 201.386719 C 318.523438 203.957031 317.816406 206.511719 317.046875 209.050781 C 316.277344 211.585938 315.445312 214.101562 314.554688 216.597656 C 313.660156 219.097656 312.707031 221.570312 311.691406 224.019531 C 310.675781 226.46875 309.601562 228.890625 308.46875 231.289062 C 307.335938 233.683594 306.144531 236.050781 304.894531 238.390625 C 303.644531 240.726562 302.339844 243.035156 300.976562 245.308594 C 299.613281 247.582031 298.195312 249.820312 296.722656 252.027344 C 295.25 254.230469 293.722656 256.398438 292.144531 258.527344 C 290.5625 260.65625 288.933594 262.746094 287.25 264.796875 C 285.570312 266.84375 283.839844 268.851562 282.058594 270.816406 C 280.277344 272.78125 278.449219 274.699219 276.574219 276.574219 C 274.699219 278.449219 272.78125 280.277344 270.816406 282.058594 C 268.851562 283.839844 266.84375 285.570312 264.796875 287.25 C 262.746094 288.933594 260.65625 290.5625 258.527344 292.144531 C 256.398438 293.722656 254.230469 295.25 252.027344 296.722656 C 249.820312 298.195312 247.582031 299.613281 245.308594 300.976562 C 243.035156 302.339844 240.726562 303.644531 238.390625 304.894531 C 236.050781 306.144531 233.683594 307.335938 231.289062 308.46875 C 228.890625 309.601562 226.46875 310.675781 224.019531 311.691406 C 221.570312 312.707031 219.097656 313.660156 216.597656 314.554688 C 214.101562 315.445312 211.585938 316.277344 209.050781 317.046875 C 206.511719 317.816406 203.957031 318.523438 201.386719 319.167969 C 198.8125 319.8125 196.226562 320.394531 193.628906 320.910156 C 191.027344 321.429688 188.417969 321.882812 185.792969 322.269531 C 183.171875 322.660156 180.539062 322.984375 177.902344 323.242188 C 175.261719 323.503906 172.621094 323.699219 169.972656 323.828125 C 167.324219 323.957031 164.675781 324.023438 162.023438 324.023438 C 159.371094 324.023438 156.722656 323.957031 154.074219 323.828125 C 151.425781 323.699219 148.78125 323.503906 146.144531 323.242188 C 143.507812 322.984375 140.875 322.660156 138.253906 322.269531 C 135.628906 321.882812 133.019531 321.429688 130.417969 320.910156 C 127.816406 320.394531 125.230469 319.8125 122.660156 319.167969 C 120.089844 318.523438 117.535156 317.816406 114.996094 317.046875 C 112.460938 316.277344 109.941406 315.445312 107.445312 314.554688 C 104.949219 313.660156 102.476562 312.707031 100.027344 311.691406 C 97.578125 310.675781 95.15625 309.601562 92.757812 308.46875 C 90.363281 307.335938 87.996094 306.144531 85.65625 304.894531 C 83.320312 303.644531 81.011719 302.339844 78.738281 300.976562 C 76.464844 299.613281 74.226562 298.195312 72.019531 296.722656 C 69.816406 295.25 67.648438 293.722656 65.519531 292.144531 C 63.390625 290.5625 61.300781 288.933594 59.25 287.25 C 57.203125 285.570312 55.195312 283.839844 53.230469 282.058594 C 51.265625 280.277344 49.347656 278.449219 47.472656 276.574219 C 45.597656 274.699219 43.769531 272.78125 41.988281 270.816406 C 40.207031 268.851562 38.476562 266.84375 36.796875 264.796875 C 35.113281 262.746094 33.484375 260.65625 31.902344 258.527344 C 30.324219 256.398438 28.796875 254.230469 27.324219 252.027344 C 25.851562 249.820312 24.433594 247.582031 23.070312 245.308594 C 21.707031 243.035156 20.402344 240.726562 19.152344 238.390625 C 17.902344 236.050781 16.710938 233.683594 15.578125 231.289062 C 14.441406 228.890625 13.367188 226.46875 12.355469 224.019531 C 11.339844 221.570312 10.386719 219.097656 9.492188 216.597656 C 8.597656 214.101562 7.769531 211.585938 7 209.050781 C 6.230469 206.511719 5.523438 203.957031 4.878906 201.386719 C 4.234375 198.8125 3.652344 196.226562 3.136719 193.628906 C 2.617188 191.027344 2.164062 188.417969 1.777344 185.792969 C 1.386719 183.171875 1.0625 180.539062 0.804688 177.902344 C 0.542969 175.261719 0.347656 172.621094 0.21875 169.972656 C 0.0859375 167.324219 0.0234375 164.675781 0.0234375 162.023438 C 0.0234375 159.371094 0.0859375 156.722656 0.21875 154.074219 C 0.347656 151.425781 0.542969 148.78125 0.804688 146.144531 C 1.0625 143.507812 1.386719 140.875 1.777344 138.253906 C 2.164062 135.628906 2.617188 133.019531 3.136719 130.417969 C 3.652344 127.816406 4.234375 125.230469 4.878906 122.660156 C 5.523438 120.089844 6.230469 117.535156 7 114.996094 C 7.769531 112.460938 8.597656 109.941406 9.492188 107.445312 C 10.386719 104.949219 11.339844 102.476562 12.355469 100.027344 C 13.367188 97.578125 14.441406 95.15625 15.578125 92.757812 C 16.710938 90.363281 17.902344 87.996094 19.152344 85.65625 C 20.402344 83.320312 21.707031 81.011719 23.070312 78.738281 C 24.433594 76.464844 25.851562 74.226562 27.324219 72.019531 C 28.796875 69.816406 30.324219 67.648438 31.902344 65.519531 C 33.484375 63.390625 35.113281 61.300781 36.796875 59.25 C 38.476562 57.203125 40.207031 55.195312 41.988281 53.230469 C 43.769531 51.265625 45.597656 49.347656 47.472656 47.472656 C 49.347656 45.597656 51.265625 43.769531 53.230469 41.988281 C 55.195312 40.207031 57.203125 38.476562 59.25 36.796875 C 61.300781 35.113281 63.390625 33.484375 65.519531 31.902344 C 67.648438 30.324219 69.816406 28.796875 72.019531 27.324219 C 74.226562 25.851562 76.464844 24.433594 78.738281 23.070312 C 81.011719 21.707031 83.320312 20.402344 85.65625 19.152344 C 87.996094 17.902344 90.363281 16.710938 92.757812 15.578125 C 95.15625 14.441406 97.578125 13.367188 100.027344 12.355469 C 102.476562 11.339844 104.949219 10.386719 107.445312 9.492188 C 109.941406 8.597656 112.460938 7.769531 114.996094 7 C 117.535156 6.230469 120.089844 5.523438 122.660156 4.878906 C 125.230469 4.234375 127.816406 3.652344 130.417969 3.136719 C 133.019531 2.617188 135.628906 2.164062 138.253906 1.777344 C 140.875 1.386719 143.507812 1.0625 146.144531 0.804688 C 148.78125 0.542969 151.425781 0.347656 154.074219 0.21875 C 156.722656 0.0859375 159.371094 0.0234375 162.023438 0.0234375 C 164.675781 0.0234375 167.324219 0.0859375 169.972656 0.21875 C 172.621094 0.347656 175.261719 0.542969 177.902344 0.804688 C 180.539062 1.0625 183.171875 1.386719 185.792969 1.777344 C 188.417969 2.164062 191.027344 2.617188 193.628906 3.136719 C 196.226562 3.652344 198.8125 4.234375 201.386719 4.878906 C 203.957031 5.523438 206.511719 6.230469 209.050781 7 C 211.585938 7.769531 214.101562 8.597656 216.597656 9.492188 C 219.097656 10.386719 221.570312 11.339844 224.019531 12.355469 C 226.46875 13.367188 228.890625 14.441406 231.289062 15.578125 C 233.683594 16.710938 236.050781 17.902344 238.390625 19.152344 C 240.726562 20.402344 243.035156 21.707031 245.308594 23.070312 C 247.582031 24.433594 249.820312 25.851562 252.027344 27.324219 C 254.230469 28.796875 256.398438 30.324219 258.527344 31.902344 C 260.65625 33.484375 262.746094 35.113281 264.796875 36.796875 C 266.84375 38.476562 268.851562 40.207031 270.816406 41.988281 C 272.78125 43.769531 274.699219 45.597656 276.574219 47.472656 C 278.449219 49.347656 280.277344 51.265625 282.058594 53.230469 C 283.839844 55.195312 285.570312 57.203125 287.25 59.25 C 288.933594 61.300781 290.5625 63.390625 292.144531 65.519531 C 293.722656 67.648438 295.25 69.816406 296.722656 72.019531 C 298.195312 74.226562 299.613281 76.464844 300.976562 78.738281 C 302.339844 81.011719 303.644531 83.320312 304.894531 85.65625 C 306.144531 87.996094 307.335938 90.363281 308.46875 92.757812 C 309.601562 95.15625 310.675781 97.578125 311.691406 100.027344 C 312.707031 102.476562 313.660156 104.949219 314.554688 107.445312 C 315.445312 109.941406 316.277344 112.460938 317.046875 114.996094 C 317.816406 117.535156 318.523438 120.089844 319.167969 122.660156 C 319.8125 125.230469 320.394531 127.816406 320.910156 130.417969 C 321.429688 133.019531 321.882812 135.628906 322.269531 138.253906 C 322.660156 140.875 322.984375 143.507812 323.242188 146.144531 C 323.503906 148.78125 323.699219 151.425781 323.828125 154.074219 C 323.957031 156.722656 324.023438 159.371094 324.023438 162.023438 Z M 324.023438 162.023438 " fill-opacity="1" fill-rule="nonzero"/><path fill="#ffffff" d="M 239.234375 222.648438 L 240.929688 213.46875 C 243.019531 202.113281 235.207031 191.308594 223.769531 189.742188 L 203.953125 187.027344 C 195.464844 185.867188 187.160156 190.175781 183.226562 197.785156 C 180.476562 203.101562 174.324219 205.722656 168.589844 203.988281 C 143.742188 196.484375 127.5625 180.304688 120.054688 155.457031 C 118.324219 149.722656 120.941406 143.570312 126.261719 140.820312 C 133.871094 136.882812 138.179688 128.582031 137.015625 120.09375 L 134.304688 100.277344 C 132.738281 88.839844 121.933594 81.023438 110.578125 83.117188 L 101.398438 84.8125 C 90.609375 86.800781 82.777344 96.207031 82.777344 107.175781 L 82.777344 117.015625 C 82.777344 138.585938 88.261719 159.839844 98.957031 178.570312 C 99.3125 179.199219 99.675781 179.824219 100.042969 180.445312 C 122.414062 218.324219 163.425781 241.269531 207.421875 241.269531 L 216.871094 241.269531 C 227.839844 241.269531 237.246094 233.4375 239.234375 222.648438 Z M 239.234375 222.648438 " fill-opacity="1" fill-rule="nonzero"/><g fill="#ffffff" fill-opacity="1"><g transform="translate(198.992158, 229.507539)"><g><path d="M 2.53125 -1.765625 C 2.53125 -2.503906 2.695312 -3.0625 3.03125 -3.4375 C 3.363281 -3.820312 3.847656 -4.015625 4.484375 -4.015625 C 5.128906 -4.015625 5.628906 -3.820312 5.984375 -3.4375 C 6.347656 -3.0625 6.53125 -2.503906 6.53125 -1.765625 C 6.53125 -1.046875 6.34375 -0.488281 5.96875 -0.09375 C 5.601562 0.289062 5.109375 0.484375 4.484375 0.484375 C 3.921875 0.484375 3.453125 0.3125 3.078125 -0.03125 C 2.710938 -0.382812 2.53125 -0.960938 2.53125 -1.765625 Z M 2.53125 -1.765625 "/></g></g></g></svg>